<?xml version="1.0" encoding="utf-8"?>
<!-- Generator: Adobe Illustrator 16.0.0, SVG Export Plug-In . SVG Version: 6.00 Build 0)  -->
<!DOCTYPE svg PUBLIC "-//W3C//DTD SVG 1.0//EN" "http://www.w3.org/TR/2001/REC-SVG-20010904/DTD/svg10.dtd">
<svg version="1.0" id="Layer_1" xmlns="http://www.w3.org/2000/svg" xmlns:xlink="http://www.w3.org/1999/xlink" x="0px" y="0px"
	 width="100px" height="100px" viewBox="0 0 100 100" enable-background="new 0 0 100 100" xml:space="preserve">
<polygon fill="#0091EA" points="79.999,56.668 79.999,36.667 73.333,36.667 73.333,56.668 66.667,56.668 66.667,23.334 60,23.334 
	60,56.668 53.333,56.668 53.333,30.001 46.667,30.001 46.667,56.668 40,56.668 40,36.667 33.333,36.667 33.333,56.668 
	26.667,56.668 26.667,63.334 86.667,63.334 86.667,56.668 "/>
<path fill="#37474F" d="M20.001,16.667h46.666C66.667,13.002,63.665,10,60,10H20.001c-3.667,0-6.668,3.001-6.668,6.667v66.666
	C13.333,87,16.334,90,20.001,90H60c3.665,0,6.667-3,6.667-6.667V70H20.001V16.667z M40,76.668c1.842,0,3.333,1.494,3.333,3.332
	c0,1.84-1.491,3.333-3.333,3.333S36.667,81.84,36.667,80C36.667,78.162,38.158,76.668,40,76.668z"/>
</svg>
