<?xml version="1.0" encoding="utf-8"?>
<!-- Generator: Adobe Illustrator 16.0.0, SVG Export Plug-In . SVG Version: 6.00 Build 0)  -->
<!DOCTYPE svg PUBLIC "-//W3C//DTD SVG 1.0//EN" "http://www.w3.org/TR/2001/REC-SVG-20010904/DTD/svg10.dtd">
<svg version="1.0" id="Layer_1" xmlns="http://www.w3.org/2000/svg" xmlns:xlink="http://www.w3.org/1999/xlink" x="0px" y="0px"
	 width="100px" height="100px" viewBox="0 0 100 100" enable-background="new 0 0 100 100" xml:space="preserve">
<rect x="36.666" y="26.667" fill="#0091EA" width="6.667" height="6.667"/>
<rect x="36.666" y="40" fill="#0091EA" width="6.667" height="6.667"/>
<rect x="36.666" y="53.332" fill="#0091EA" width="6.667" height="6.668"/>
<path fill="#37474F" d="M69.999,10H30c-3.666,0-6.667,3.001-6.667,6.667v66.666C23.333,87,26.334,90,30,90h39.999
	c3.665,0,6.667-3,6.667-6.667V16.667C76.666,13.001,73.664,10,69.999,10z M50,83.332c-1.843,0-3.334-1.494-3.334-3.332
	c0-1.84,1.491-3.334,3.334-3.334c1.842,0,3.333,1.494,3.333,3.334C53.333,81.838,51.842,83.332,50,83.332z M69.999,70H30V16.667
	h39.999V70z"/>
<rect x="50" y="26.667" fill="#0091EA" width="19.999" height="6.667"/>
<rect x="50" y="40" fill="#0091EA" width="19.999" height="6.667"/>
<rect x="50" y="53.334" fill="#0091EA" width="19.999" height="6.666"/>
</svg>
