<?xml version="1.0" encoding="utf-8"?>
<!-- Generator: Adobe Illustrator 16.0.0, SVG Export Plug-In . SVG Version: 6.00 Build 0)  -->
<!DOCTYPE svg PUBLIC "-//W3C//DTD SVG 1.0//EN" "http://www.w3.org/TR/2001/REC-SVG-20010904/DTD/svg10.dtd">
<svg version="1.0" id="Layer_1" xmlns="http://www.w3.org/2000/svg" xmlns:xlink="http://www.w3.org/1999/xlink" x="0px" y="0px"
	 width="100px" height="100px" viewBox="0 0 100 100" enable-background="new 0 0 100 100" xml:space="preserve">
<path fill="#0091EA" d="M72.767,33.906l-4.712,4.713c2.604,2.604,2.598,6.826,0,9.427l4.712,4.714
	C77.968,47.555,77.968,39.111,72.767,33.906z"/>
<path fill="#0091EA" d="M82.194,24.477l-4.715,4.717c7.807,7.809,7.807,20.475,0,28.281l4.715,4.716
	C92.604,51.776,92.604,34.889,82.194,24.477z"/>
<path fill="#0091EA" d="M47.569,42.729l-7.572-1.896v-2.219c1.986-1.732,3.333-4.922,3.333-8.613c0-3.686-2.983-6.667-6.667-6.667
	c-3.685,0-6.667,2.981-6.667,6.667c0,3.691,1.347,6.881,3.333,8.613v2.219l-7.575,1.896c-1.332,0.332-2.425,1.73-2.425,3.104V50
	h26.667v-4.167C49.999,44.459,48.905,43.061,47.569,42.729z"/>
<path fill="#37474F" d="M56.668,10H16.665C13,10,9.998,13.001,9.998,16.667v66.666c0,3.666,3.001,6.667,6.667,6.667h40.003
	c3.664,0,6.665-3.001,6.665-6.667V16.667C63.333,13.001,60.332,10,56.668,10z M36.664,83.333c-1.841,0-3.333-1.491-3.333-3.334
	c0-1.842,1.491-3.333,3.333-3.333c1.843,0,3.333,1.491,3.333,3.333C39.997,81.842,38.507,83.333,36.664,83.333z M56.668,69.999
	H16.665V16.667h40.003V69.999z"/>
<rect x="26.665" y="56.667" fill="#0091EA" width="20" height="6.666"/>
</svg>
