<?xml version="1.0" encoding="utf-8"?>
<!-- Generator: Adobe Illustrator 16.0.0, SVG Export Plug-In . SVG Version: 6.00 Build 0)  -->
<!DOCTYPE svg PUBLIC "-//W3C//DTD SVG 1.0//EN" "http://www.w3.org/TR/2001/REC-SVG-20010904/DTD/svg10.dtd">
<svg version="1.0" id="Layer_1" xmlns="http://www.w3.org/2000/svg" xmlns:xlink="http://www.w3.org/1999/xlink" x="0px" y="0px"
	 width="100px" height="100px" viewBox="0 0 100 100" enable-background="new 0 0 100 100" xml:space="preserve">
<path fill="#0091EA" d="M23.333,23.334L20,30v5c0,2.76,2.24,5,5,5c2.764,0,5-2.24,5-5c0,2.76,2.24,5,4.999,5c2.765,0,5-2.24,5-5
	c0,2.76,2.241,5,5,5c2.765,0,5-2.24,5-5c0,2.76,2.241,5,5,5c2.764,0,5-2.24,5-5c0,2.76,2.24,5,5,5c2.764,0,5-2.24,5-5
	c0,2.76,2.238,5,5,5c2.764,0,5-2.24,5-5v-5l-3.334-6.666H23.333z"/>
<path fill="#37474F" d="M23.333,23.334v-6.666C23.333,13.002,26.334,10,30,10h40c3.664,0,6.666,3.002,6.666,6.666v6.668H70v-6.666
	H30v6.666H23.333z"/>
<path fill="#37474F" d="M70,46.667V70H30V46.667h-6.667v36.667C23.333,87,26.334,90,30,90h40c3.664,0,6.666-3,6.666-6.666V46.667H70
	z M50,83.334c-1.842,0-3.333-1.49-3.333-3.334c0-1.843,1.491-3.333,3.333-3.333c1.842,0,3.334,1.49,3.334,3.333
	C53.334,81.844,51.842,83.334,50,83.334z"/>
<polygon fill="#0091EA" points="36.667,55 46.667,65 63.334,48.334 58.619,43.622 46.667,55.573 41.38,50.287 "/>
</svg>
