<?xml version="1.0" encoding="UTF-8"?>
<!DOCTYPE svg PUBLIC "-//W3C//DTD SVG 1.1//EN" "http://www.w3.org/Graphics/SVG/1.1/DTD/svg11.dtd">
<!-- Creator: CorelDRAW -->
<svg xmlns="http://www.w3.org/2000/svg" xml:space="preserve" width="1125px" height="1125px" version="1.1" shape-rendering="geometricPrecision" text-rendering="geometricPrecision" image-rendering="optimizeQuality" fill-rule="evenodd" clip-rule="evenodd"
viewBox="0 0 112500 112500"
 xmlns:xlink="http://www.w3.org/1999/xlink"
 xmlns:xodm="http://www.corel.com/coreldraw/odm/2003">
 <defs>
    <clipPath id="id0" clip-rule="nonzero">
     <path d="M101293 56621c0,27642 -22408,50050 -50050,50050 -27643,0 -50050,-22408 -50050,-50050 0,-27641 22407,-50050 50050,-50050 27642,0 50050,22409 50050,50050z"/>
    </clipPath>
       <linearGradient id="id1" gradientUnits="userSpaceOnUse" x1="44168" y1="34299" x2="78565" y2="118151">
        <stop offset="0" stop-opacity="1" stop-color="#D4BD15"/>
        <stop offset="0.439216" stop-opacity="1" stop-color="#D5A41E"/>
        <stop offset="1" stop-opacity="1" stop-color="#D46146"/>
       </linearGradient>
     <linearGradient id="id2" gradientUnits="userSpaceOnUse" x1="44168" y1="34299" x2="78565" y2="118151">
      <stop offset="0" stop-opacity="1" stop-color="#D4BD15"/>
      <stop offset="0.439216" stop-opacity="1" stop-color="#D5A41E"/>
      <stop offset="1" stop-opacity="1" stop-color="#D46146"/>
     </linearGradient>
 </defs>
 <g id="Layer_x0020_1">
  <metadata id="CorelCorpID_0Corel-Layer"/>
  <g id="_105553412156448">
   <path fill="#3F6DA1" fill-rule="nonzero" d="M101293 56621c0,27642 -22408,50050 -50050,50050 -27643,0 -50050,-22408 -50050,-50050 0,-27641 22407,-50050 50050,-50050 27642,0 50050,22409 50050,50050z"/>
   <g clip-path="url(#id0)">
    <g>
     <g>
      <path id="1" fill="#F4D0A9" fill-rule="nonzero" d="M30196 84550l-36 0 0 -11921 4648 0 487 -1258 5644 -5740c0,0 351,-269 970,-232 1397,81 9035,2021 10340,4169 3616,5951 1159,16495 1159,16495l-23799 0 587 -1513z"/>
      <path fill="#EBC5A3" fill-rule="nonzero" d="M37589 77430c2531,0 4317,-497 5893,-3194l-317 -185c-1789,3059 -3788,3121 -7169,2966l-17 367c569,26 1105,46 1610,46z"/>
      <path fill="#3F3F3E" fill-rule="nonzero" d="M55290 76828c758,1586 -154,3022 -1737,3016l-5885 0c-1583,-7 -2042,-727 -2042,-3316 0,-10907 -11,-21490 -11,-21490 -303,-1519 779,-2755 2232,-3135l4661 -1314c1366,-378 3070,762 2741,2589 0,0 -3539,16152 41,23650z"/>
      <path fill="#282627" fill-rule="nonzero" d="M53691 67866c0,-8052 1558,-14688 1558,-14688 329,-1827 -1375,-2967 -2741,-2589l-4661 1314c-1453,380 -2535,1616 -2232,3135 0,0 -51,5589 8,12828 2461,0 5245,0 8068,0z"/>
      <path fill="#F4D0A9" fill-rule="nonzero" d="M51202 74199c-1214,193 -2044,1331 -1852,2545 194,1215 1332,2043 2546,1851l3300 -521c1213,-192 2041,-1332 1848,-2545 -191,-1214 -1329,-2043 -2544,-1851l-3298 521z"/>
      <path fill="#F6D9BA" fill-rule="nonzero" d="M51387 77757c-715,0 -1438,-276 -1441,-1294 -1,-1220 717,-1580 1714,-1580 180,0 368,12 564,32 1277,135 1422,1131 1400,1477 -56,882 -796,1150 -1628,1305 -189,36 -399,60 -609,60z"/>
      <path fill="#F4D0A9" fill-rule="nonzero" d="M51150 78583c-1125,42 -2001,991 -1957,2113 43,1125 991,2000 2116,1957l3053 -118c1123,-42 1999,-991 1956,-2113 -44,-1126 -991,-2002 -2115,-1958l-3053 119z"/>
      <path fill="#F6D9BA" fill-rule="nonzero" d="M50992 81940c-659,0 -1326,-254 -1328,-1193 -1,-1125 662,-1457 1582,-1457 165,0 338,11 518,30 1177,125 1310,1043 1291,1362 -52,814 -734,1060 -1501,1203 -175,33 -368,55 -562,55z"/>
      <path fill="#F4D0A9" fill-rule="nonzero" d="M50108 82776c-1001,39 -1779,880 -1739,1880 37,996 880,1778 1878,1739l2712 -107c999,-36 1776,-881 1740,-1879 -39,-999 -880,-1776 -1879,-1738l-2712 105z"/>
      <path fill="#F6D9BA" fill-rule="nonzero" d="M50127 85739c-597,0 -1201,-231 -1204,-1082 0,-1021 600,-1323 1435,-1323 150,0 308,10 471,27 1069,113 1189,946 1172,1236 -47,739 -666,961 -1362,1091 -160,30 -335,51 -512,51z"/>
      <path fill="#F4D0A9" fill-rule="nonzero" d="M50934 69467c-1247,197 -2098,1367 -1901,2613 199,1249 1369,2099 2614,1902l3389 -535c1247,-198 2097,-1368 1899,-2615 -196,-1246 -1366,-2099 -2613,-1901l-3388 536z"/>
      <path fill="#F6D9BA" fill-rule="nonzero" d="M51124 73120c-734,0 -1477,-283 -1480,-1329 0,-1252 738,-1622 1762,-1622 185,0 378,12 578,33 1311,139 1459,1162 1438,1516 -58,907 -818,1181 -1671,1341 -196,37 -411,61 -627,61z"/>
      <path fill="#F4D0A9" fill-rule="nonzero" d="M40129 67337c0,1077 873,1949 1949,1949l8959 0c1077,0 1950,-872 1950,-1949 0,-1077 -873,-1950 -1950,-1950l-8959 0c-1076,0 -1949,873 -1949,1950z"/>
      <path fill="#444342" fill-rule="nonzero" d="M52276 65831c-280,-231 -626,-385 -1006,-430 332,17 651,93 868,283 53,47 99,96 138,147z"/>
      <path fill="#F6D9BA" fill-rule="nonzero" d="M52484 66604l-2558 0 0 -1038c228,-59 715,-168 1198,-168 49,0 97,1 146,3 380,45 726,199 1006,430 184,240 225,521 208,773z"/>
      <polygon fill="#FFF3CD" fill-rule="nonzero" points="23422,71820 31000,72615 31405,85920 23127,87623 "/>
      <path fill="#354452" fill-rule="nonzero" d="M2946 69631c11716,1700 23415,1824 23415,1824l-988 16474c0,0 -7425,2348 -22427,1443l0 -19741z"/>
      <path fill="#414E5E" fill-rule="nonzero" d="M25603 84100l-230 3829c0,0 -7425,2348 -22427,1443l0 -4836c13846,1062 18709,-139 22657,-436z"/>
      <path fill="#9DBDC4" fill-rule="nonzero" d="M22379 84121c0,632 447,1144 998,1144 552,0 999,-512 999,-1144 0,-632 -447,-1143 -999,-1143 -551,0 -998,511 -998,1143z"/>
      <path fill="#3F3F3E" fill-rule="nonzero" d="M45996 39934c-16439,841 -13112,8390 -12926,12424 193,4030 2199,12718 18030,7730l-5104 -20154z"/>
      <path fill="#C34435" fill-rule="nonzero" d="M45278 40053c25266,-3996 45034,-30076 45034,-30076l11007 63762c0,0 -26798,-16415 -51095,-13504 -9743,-7979 -5426,-18666 -4946,-20182z"/>
      <path fill="#E2564A" fill-rule="nonzero" d="M44073 49702c-658,-4764 925,-8765 1205,-9649 25266,-3996 45034,-30076 45034,-30076l3828 22177c-13526,8323 -31348,16537 -50067,17548z"/>
      <path fill="#D14E3F" fill-rule="nonzero" d="M92519 22763l1621 9391c-13526,8323 -31348,16537 -50067,17548 -173,-1256 -190,-2459 -117,-3565 18570,-3774 35508,-13628 48563,-23374z"/>
      <path fill="#3F3F3E" fill-rule="nonzero" d="M101319 73739c0,0 -6476,-4254 -16002,-8082 -10077,-17859 -9644,-33154 -7747,-42383 7904,-6931 12742,-13297 12742,-13297l11007 63762z"/>
      <path fill="#FDF6DE" fill-rule="nonzero" stroke="#D9DAD8" stroke-width="90" stroke-miterlimit="10" d="M85312 43796c3132,18164 11071,31955 17724,30806 6662,-1144 9525,-16803 6397,-34963 -3140,-18160 -11075,-31944 -17743,-30799 -6653,1146 -9509,16794 -6378,34956z"/>
      <path fill="#C34435" fill-rule="nonzero" d="M90136 42965c2564,14863 8471,26245 13186,25437 4727,-822 6479,-13524 3907,-28389 -2554,-14855 -8464,-26244 -13190,-25426 -4724,814 -6465,13522 -3903,28378z"/>
      <path fill="#D14E41" fill-rule="nonzero" d="M107229 44997c-2554,-14855 -8464,-26244 -13190,-25427 -2933,506 -4716,5597 -5033,12940 -391,-9946 1474,-17310 5033,-17923 4726,-818 10636,10571 13190,25426 975,5636 1328,10959 1134,15443 -128,-3257 -499,-6792 -1134,-10459z"/>
      <path fill="#D8534A" fill-rule="nonzero" d="M107872 47409c190,1096 354,2179 497,3248 61,1681 59,3289 -6,4799 -128,-3257 -499,-6792 -1134,-10459 -363,-2111 -794,-4153 -1280,-6099 753,2647 1407,5508 1923,8511z"/>
      <path fill="#D8534A" fill-rule="nonzero" d="M94039 14587c4054,-702 8980,7580 11910,19327 -2972,-10449 -7497,-17568 -11267,-16916 -2096,361 -3605,3066 -4411,7260 -692,2170 -1124,4988 -1265,8252 -391,-9946 1474,-17310 5033,-17923z"/>
      <path fill="#585755" fill-rule="nonzero" d="M36316 45045c133,757 1081,1220 2119,1037 1044,-177 1789,-935 1655,-1684 -131,-751 -1080,-1215 -2122,-1037 -1042,178 -1777,937 -1652,1684z"/>
      <path fill="#FDF6DE" fill-rule="nonzero" d="M104527 40029c756,4364 -2172,8503 -6532,9250l-6231 1084c-623,-2335 -1184,-4806 -1628,-7398 -505,-2911 -833,-5730 -1014,-8401l6149 -1059c4365,-757 8508,2169 9256,6524z"/>
      <path fill="#E1CEA5" fill-rule="nonzero" d="M97302 49406l-5538 957c-623,-2335 -1184,-4806 -1628,-7398 -505,-2911 -833,-5730 -1014,-8401l4859 -839c-348,1417 -1011,3234 -1111,5160 -200,3834 877,8103 4432,10521z"/>
      <path fill="#E1CEA5" fill-rule="nonzero" d="M95717 37935c0,1421 1152,2572 2572,2572 1421,0 2573,-1151 2573,-2572 0,-1421 -1152,-2572 -2573,-2572 -1420,0 -2572,1151 -2572,2572z"/>
      <path fill="#D9DAD8" fill-rule="nonzero" d="M48298 30831c-1423,0 -2906,-244 -4477,-812 -2155,-781 -4398,-1448 -6657,-1607 -1550,-2133 -2971,-4306 -4263,-6507 1,0 2,0 3,0 401,-1 16724,-1984 28997,-13117 429,412 866,820 1311,1223l11 -45c3243,2957 6913,5677 10980,8065 -303,4 -2050,2230 -6248,5250 -7614,2266 -13019,7550 -19657,7550z"/>
      <path fill="#D9DAD8" d="M42201 34678c-1807,-2040 -3486,-4133 -5037,-6266 2259,159 4502,826 6657,1607 1571,568 3054,812 4477,812 6638,0 12043,-5284 19657,-7550 -4830,3475 -12906,8001 -25754,11397z"/>
      <path fill="#D9DAD8" fill-rule="nonzero" d="M32901 21905c-5,-1 -5,-1 -1,-2 0,0 1,1 1,2zm41341 -3851c-13,-7 -26,-15 -39,-23 1,0 1,0 1,0 17,0 30,8 38,23z"/>
      <path fill="#FDF6D1" fill-rule="nonzero" d="M41775 34033c-3564,-4096 -6620,-8399 -9155,-12811 -252,78 16406,-1694 28876,-12972 3520,3451 7600,6612 12197,9350 -299,-580 -7349,10031 -31918,16433z"/>
      <path fill="#FDFBDB" fill-rule="nonzero" d="M56346 21749c3605,-4381 5580,-8751 6455,-12313 3209,2988 6850,5740 10892,8164 -299,-580 -7349,10031 -31918,16433 -250,-301 -497,-603 -742,-905 5622,-2282 11213,-6325 15313,-11379z"/>
      <path fill="#ECDBB5" fill-rule="nonzero" d="M61738 23823c-1062,-871 -2088,-1763 -3079,-2675 135,-94 270,-190 405,-285 990,930 2017,1842 3079,2732 -135,76 -270,152 -405,228z"/>
      <path fill="#ECDBB5" fill-rule="nonzero" d="M55207 27379c-663,-611 -1311,-1230 -1944,-1856 190,-75 380,-149 568,-224 647,614 1309,1219 1985,1817 -202,89 -406,176 -609,263z"/>
      <path fill="#ECDBB5" fill-rule="nonzero" d="M52922 25219c-168,-185 -336,-371 -501,-558 189,-71 376,-143 565,-216 178,177 358,353 538,529 -200,83 -401,164 -602,245z"/>
      <path fill="#ECDBB5" fill-rule="nonzero" d="M62074 21844c-697,-554 -1379,-1117 -2046,-1690 147,-110 293,-222 438,-332 657,577 1328,1145 2014,1705 -134,106 -271,211 -406,317z"/>
      <path fill="#ECDBB5" fill-rule="nonzero" d="M57778 17383c767,732 1557,1452 2370,2160 -146,112 -294,223 -442,334 -826,-701 -1631,-1417 -2411,-2145 162,-116 324,-232 483,-349z"/>
      <path fill="#ECDBB5" fill-rule="nonzero" d="M57478 17096c-162,118 -324,235 -487,352 -332,-308 -659,-619 -982,-930 127,-160 254,-320 379,-480 358,355 721,707 1090,1058z"/>
      <path fill="#ECDBB5" fill-rule="nonzero" d="M62809 21797c339,276 681,550 1027,822 -158,79 -318,158 -478,236 -319,-247 -635,-496 -948,-746 134,-104 267,-208 399,-312z"/>
      <path fill="#ECDBB5" fill-rule="nonzero" d="M54606 18736c849,875 1728,1736 2636,2580 -150,106 -302,209 -455,312 -895,-858 -1759,-1733 -2594,-2621 139,-90 277,-179 413,-271z"/>
      <path fill="#ECDBB5" fill-rule="nonzero" d="M58675 23337c-517,-454 -1025,-913 -1525,-1376 156,-106 311,-212 464,-317 516,450 1040,894 1573,1333 -170,120 -340,240 -512,360z"/>
      <path fill="#ECDBB5" fill-rule="nonzero" d="M58999 23622c173,-122 346,-243 517,-366 359,374 722,747 1090,1117 -137,93 -275,188 -414,281 -402,-341 -801,-685 -1193,-1032z"/>
      <path fill="#ECDBB5" fill-rule="nonzero" d="M47956 19075c485,560 981,1116 1488,1666 -159,87 -319,175 -480,263 -494,-561 -976,-1126 -1448,-1696 147,-77 294,-154 440,-233z"/>
      <path fill="#ECDBB5" fill-rule="nonzero" d="M50708 22885c-477,-501 -946,-1006 -1406,-1517 162,-88 324,-178 485,-268 477,498 963,992 1459,1480 -179,102 -358,204 -538,305z"/>
      <path fill="#ECDBB5" fill-rule="nonzero" d="M51005 23198c182,-102 364,-205 544,-309 328,407 660,812 998,1214 -145,81 -292,161 -438,241 -373,-380 -741,-762 -1104,-1146z"/>
      <path fill="#ECDBB5" fill-rule="nonzero" d="M42190 20373c463,596 939,1188 1425,1776 -168,75 -336,150 -505,225 -473,-597 -934,-1198 -1383,-1804 154,-65 308,-131 463,-197z"/>
      <path fill="#ECDBB5" fill-rule="nonzero" d="M44779 24383c-459,-535 -909,-1075 -1350,-1617 172,-77 344,-154 515,-231 456,533 922,1062 1398,1587 -187,88 -375,175 -563,261z"/>
      <path fill="#ECDBB5" fill-rule="nonzero" d="M45062 24721c192,-89 382,-179 572,-268 308,431 623,859 943,1287 -151,67 -303,135 -455,202 -359,-405 -713,-812 -1060,-1221z"/>
      <path fill="#ECDBB5" fill-rule="nonzero" d="M62915 20142c-832,-652 -1643,-1318 -2432,-1998 165,-128 328,-257 491,-388 777,685 1575,1357 2394,2016 -151,124 -302,247 -453,370z"/>
      <path fill="#ECDBB5" fill-rule="nonzero" d="M58822 15815c600,563 1214,1119 1840,1667 -165,131 -332,261 -499,391 -636,-544 -1259,-1096 -1867,-1656 177,-133 352,-267 526,-402z"/>
      <path fill="#ECDBB5" fill-rule="nonzero" d="M63252 20398c149,-120 296,-241 443,-362 644,523 1301,1037 1972,1543 -175,93 -349,184 -523,276 -653,-483 -1295,-972 -1924,-1470l32 13z"/>
      <path fill="#ECDBB5" fill-rule="nonzero" d="M58521 15533c-176,135 -353,269 -531,403 -376,-344 -748,-692 -1112,-1042 138,-181 275,-363 411,-545 404,397 815,792 1232,1184z"/>
      <path fill="#ECDBB5" fill-rule="nonzero" d="M49587 29691c-1001,-1022 -1964,-2063 -2891,-3119 155,-73 310,-146 465,-219 923,1075 1884,2134 2883,3176 -152,55 -304,109 -457,162z"/>
      <path fill="#ECDBB5" fill-rule="nonzero" d="M50202 27792c-660,-655 -1305,-1318 -1935,-1988 170,-85 338,-170 506,-258 617,673 1249,1339 1897,1998 -155,82 -312,166 -468,248z"/>
      <path fill="#ECDBB5" fill-rule="nonzero" d="M46252 22714c717,846 1458,1683 2224,2508 -170,87 -340,174 -512,260 -780,-823 -1536,-1656 -2267,-2500 185,-88 371,-177 555,-268z"/>
      <path fill="#ECDBB5" fill-rule="nonzero" d="M45969 22383c-186,90 -373,180 -560,270 -312,-359 -619,-718 -921,-1078 156,-138 310,-275 464,-413 335,409 673,816 1017,1221z"/>
      <path fill="#ECDBB5" fill-rule="nonzero" d="M50981 27860c319,325 643,648 971,969 -177,53 -355,106 -532,159 -304,-292 -604,-586 -902,-882 155,-82 309,-163 463,-246z"/>
      <path fill="#ECDBB5" fill-rule="nonzero" d="M42729 23541c787,1003 1605,1995 2457,2973 -174,79 -347,157 -521,234 -834,-989 -1637,-1992 -2407,-3005 157,-67 314,-134 471,-202z"/>
      <path fill="#ECDBB5" fill-rule="nonzero" d="M46435 28734c-487,-529 -963,-1062 -1431,-1599 178,-79 354,-158 530,-239 485,526 980,1047 1484,1564 -194,92 -388,183 -583,274z"/>
      <path fill="#ECDBB5" fill-rule="nonzero" d="M46739 29065c197,-93 393,-185 589,-279 329,427 663,850 1002,1273 -157,71 -315,142 -473,212 -378,-400 -751,-802 -1118,-1206z"/>
      <path fill="#ECDBB5" fill-rule="nonzero" d="M51309 26246c-789,-772 -1555,-1556 -2298,-2350 191,-101 382,-202 571,-305 730,797 1482,1584 2257,2360 -176,99 -353,197 -530,295z"/>
      <path fill="#ECDBB5" fill-rule="nonzero" d="M47560 21335c561,652 1138,1298 1728,1935 -192,103 -384,205 -578,307 -601,-637 -1188,-1281 -1759,-1931 204,-103 406,-206 609,-311z"/>
      <path fill="#ECDBB5" fill-rule="nonzero" d="M51634 26550c173,-95 344,-191 515,-288 608,615 1230,1222 1865,1824 -195,64 -389,126 -585,189 -623,-575 -1232,-1156 -1828,-1744l33 19z"/>
      <path fill="#ECDBB5" fill-rule="nonzero" d="M47279 21008c-204,105 -411,210 -618,313 -353,-400 -701,-803 -1044,-1209 169,-156 338,-313 506,-471 378,459 764,915 1156,1367z"/>
      <path fill="#ECDBB5" fill-rule="nonzero" d="M55396 25298c-676,-612 -1338,-1232 -1984,-1860 161,-96 320,-193 479,-291 634,633 1282,1258 1946,1874 -147,92 -293,185 -441,277z"/>
      <path fill="#ECDBB5" fill-rule="nonzero" d="M52519 21799c351,350 706,698 1067,1043 -161,99 -322,196 -484,293 -374,-338 -745,-678 -1111,-1022 177,-104 353,-209 528,-314z"/>
      <path fill="#ECDBB5" fill-rule="nonzero" d="M51983 21239c-179,105 -357,210 -537,313 -656,-689 -1294,-1386 -1914,-2090 143,-147 286,-295 428,-443 653,749 1328,1489 2023,2220z"/>
      <path fill="#ECDBB5" fill-rule="nonzero" d="M56155 25317c328,305 659,608 994,909 -169,64 -339,128 -508,191 -311,-273 -618,-547 -922,-824 146,-91 291,-183 436,-276z"/>
      <path fill="#ECDBB5" fill-rule="nonzero" d="M56607 24033c-769,-684 -1519,-1378 -2249,-2084 172,-108 343,-217 513,-326 717,708 1453,1407 2210,2096 -157,105 -316,211 -474,314z"/>
      <path fill="#ECDBB5" fill-rule="nonzero" d="M52882 19615c553,580 1119,1155 1699,1724 -172,109 -344,218 -517,327 -591,-565 -1168,-1136 -1732,-1713 184,-113 367,-225 550,-338z"/>
      <path fill="#ECDBB5" fill-rule="nonzero" d="M56922 24301c155,-101 309,-204 463,-305 594,545 1200,1084 1818,1616 -177,73 -355,146 -533,218 -605,-508 -1197,-1023 -1779,-1543l31 14z"/>
      <path fill="#ECDBB5" fill-rule="nonzero" d="M52605 19324c-184,113 -370,226 -555,339 -349,-356 -693,-715 -1032,-1076 150,-161 298,-321 447,-483 373,409 753,816 1140,1220z"/>
      <path fill="#D9DAD8" d="M98696 98650c-4524,0 -10882,-517 -18281,-2702 19,-45 38,-90 56,-136 71,-174 141,-349 207,-523 7031,1976 13071,2453 17419,2453 2028,0 3689,-104 4909,-208 1220,-104 2001,-207 2271,-207 38,0 65,1 83,6 1,14 1,28 2,42 28,-21 27,-35 -2,-42 -261,-5347 -761,-10655 -1497,-15909 153,-19 308,-39 462,-59 98,673 180,1350 270,2024l63 -45c646,4923 1081,9893 1303,14899 23,7 28,19 1,39l-2 -39c-17,-5 -47,-8 -89,-8 -270,0 -1050,104 -2270,207 -1219,104 -2877,208 -4905,208l0 0z"/>
      <path fill="#D9DAD8" d="M80415 95948c-127,-38 -253,-75 -381,-114 91,-218 179,-435 264,-653 127,37 253,72 380,108 -66,174 -136,349 -207,523 -18,46 -37,91 -56,136l0 0z"/>
      <path fill="#D9DAD8" fill-rule="nonzero" d="M80034 95834l-1 0c92,-218 180,-435 264,-653l1 0c-85,218 -173,435 -264,653zm-715 -220c-799,-250 -1608,-520 -2428,-811 148,-344 59,-605 -197,-766 979,341 1943,651 2890,935 -85,214 -173,428 -265,642zm-4551 -1602c-3810,-1491 -7817,-3440 -11935,-5978 197,-32 383,-87 555,-166 1401,1191 3206,2207 5308,2828 2593,1270 5120,2321 7556,3186 -119,-20 -250,-31 -391,-31 -126,0 -259,8 -400,25 -231,28 -464,74 -693,136z"/>
      <path fill="#D9DAD8" fill-rule="nonzero" d="M76891 94803c-700,-248 -1408,-512 -2123,-791 229,-62 462,-108 693,-136 141,-17 274,-25 400,-25 141,0 272,11 391,31 147,52 295,104 442,155 256,161 345,422 197,766z"/>
      <path fill="#D9DAD8" fill-rule="nonzero" stroke="#D9DAD8" stroke-width="90" stroke-miterlimit="10" d="M80033 95834c-237,-71 -475,-145 -714,-220 92,-214 180,-428 265,-642 238,71 477,141 713,209 -84,218 -172,435 -264,653zm-11337 -5138c-2102,-621 -3907,-1637 -5308,-2828 -172,79 -358,134 -555,166 -366,-226 -735,-458 -1103,-693 80,-126 159,-252 238,-379 2280,1419 4528,2656 6728,3734z"/>
      <path fill="#FDF6D1" fill-rule="nonzero" d="M61130 86434c2772,-4395 5303,-8905 7585,-13510 -109,-232 2394,1892 7261,4016 5912,2579 15310,5158 27749,3518 814,5582 1360,11228 1637,16917 165,-126 -682,17 -2356,159 -6050,514 -22906,1029 -41876,-11100z"/>
      <path fill="#FDFBDB" fill-rule="nonzero" d="M86012 89144c7723,-922 13997,-3717 18046,-6707 647,4935 1083,9918 1304,14938 760,-579 -20013,4544 -44232,-10941 211,-314 421,-629 630,-945 6474,3066 15379,4792 24252,3655z"/>
      <path fill="#ECDBB5" fill-rule="nonzero" d="M87888 94453c240,-1399 463,-2801 667,-4202 216,17 432,33 649,47 -219,1422 -461,2844 -723,4263 -198,-35 -396,-71 -593,-108z"/>
      <path fill="#ECDBB5" fill-rule="nonzero" d="M78610 92399c259,-871 512,-1743 758,-2617 227,82 456,163 687,243 -220,877 -444,1754 -677,2630 -257,-84 -513,-169 -768,-256z"/>
      <path fill="#ECDBB5" fill-rule="nonzero" d="M79458 89335c85,-247 170,-492 252,-737 224,80 448,159 673,238 -62,249 -125,499 -188,747 -246,-82 -493,-164 -737,-248z"/>
      <path fill="#ECDBB5" fill-rule="nonzero" d="M90536 93143c92,-922 178,-1843 256,-2766 244,10 488,18 733,25 -87,922 -182,1843 -285,2765 -235,-7 -469,-15 -704,-24z"/>
      <path fill="#ECDBB5" fill-rule="nonzero" d="M91802 86544c-68,1138 -146,2274 -236,3412 -246,-6 -492,-13 -737,-23 76,-1136 143,-2274 201,-3411 256,10 514,16 772,22z"/>
      <path fill="#ECDBB5" fill-rule="nonzero" d="M91825 86099c-259,-5 -517,-12 -776,-22 20,-482 37,-965 53,-1447 262,-54 527,-107 792,-165 -21,546 -44,1090 -69,1634z"/>
      <path fill="#ECDBB5" fill-rule="nonzero" d="M91187 93610c-55,455 -114,909 -175,1364 -222,-47 -445,-95 -668,-143 51,-417 101,-831 149,-1247 231,10 462,18 694,26z"/>
      <path fill="#ECDBB5" fill-rule="nonzero" d="M87732 85561c-159,1286 -332,2572 -519,3857 -238,-21 -476,-43 -713,-67 222,-1281 426,-2562 616,-3845 206,20 411,38 616,55z"/>
      <path fill="#ECDBB5" fill-rule="nonzero" d="M86071 91960c122,-700 240,-1400 355,-2102 243,25 484,48 727,70 -82,706 -168,1409 -257,2112 -276,-24 -551,-52 -825,-80z"/>
      <path fill="#ECDBB5" fill-rule="nonzero" d="M85991 92399c278,29 558,57 838,82 -159,533 -322,1065 -490,1597 -221,-26 -443,-52 -663,-80 108,-532 212,-1065 315,-1599z"/>
      <path fill="#ECDBB5" fill-rule="nonzero" d="M81951 81390c-134,764 -273,1529 -416,2292 -213,-41 -427,-82 -639,-124 168,-759 329,-1517 487,-2277 189,38 379,74 568,109z"/>
      <path fill="#ECDBB5" fill-rule="nonzero" d="M80331 86144c159,-693 314,-1388 467,-2082 216,43 432,86 650,125 -123,700 -249,1400 -379,2100 -246,-47 -492,-95 -738,-143z"/>
      <path fill="#ECDBB5" fill-rule="nonzero" d="M80227 86575c249,51 501,100 752,147 -180,524 -364,1045 -551,1565 -200,-42 -400,-85 -601,-130 135,-526 269,-1054 400,-1582z"/>
      <path fill="#ECDBB5" fill-rule="nonzero" d="M76297 78559c-203,749 -409,1496 -620,2244 -198,-59 -397,-119 -595,-180 234,-740 463,-1483 688,-2225 176,54 351,109 527,161z"/>
      <path fill="#ECDBB5" fill-rule="nonzero" d="M74283 83145c220,-677 437,-1354 650,-2032 203,62 406,124 610,184 -187,685 -378,1371 -572,2054 -230,-68 -458,-135 -688,-206z"/>
      <path fill="#ECDBB5" fill-rule="nonzero" d="M74137 83565c234,72 469,142 703,212 -225,504 -452,1006 -684,1508 -184,-60 -369,-122 -554,-183 181,-512 360,-1025 535,-1537z"/>
      <path fill="#ECDBB5" fill-rule="nonzero" d="M93214 92328c61,-1111 111,-2220 150,-3327 280,0 561,-3 841,-6 -50,1110 -111,2220 -183,3330 -269,3 -538,4 -808,3z"/>
      <path fill="#ECDBB5" fill-rule="nonzero" d="M94282 85872c-13,892 -33,1784 -58,2677 -284,4 -568,5 -850,5 19,-892 34,-1784 41,-2674 288,0 579,-2 867,-8z"/>
      <path fill="#ECDBB5" fill-rule="nonzero" d="M93200 92770c263,2 527,2 790,0 -71,875 -150,1753 -234,2629 -255,-45 -507,-88 -760,-135 70,-842 133,-1685 192,-2528l12 34z"/>
      <path fill="#ECDBB5" fill-rule="nonzero" d="M94286 85424c-290,6 -580,7 -870,8 -2,-551 -7,-1100 -14,-1650 293,-70 585,-142 878,-217 5,619 7,1240 6,1859z"/>
      <path fill="#ECDBB5" fill-rule="nonzero" d="M71762 89850c539,-1309 1060,-2625 1564,-3944 193,61 387,122 580,183 -521,1336 -1063,2667 -1626,3990 -173,-75 -347,-151 -518,-229z"/>
      <path fill="#ECDBB5" fill-rule="nonzero" d="M74469 89135c292,-877 579,-1756 856,-2636 220,61 440,120 660,178 -286,879 -581,1756 -884,2631 -212,-57 -422,-115 -632,-173z"/>
      <path fill="#ECDBB5" fill-rule="nonzero" d="M77095 82985c-315,1092 -638,2181 -973,3267 -222,-57 -443,-117 -665,-178 326,-1089 641,-2180 948,-3275 229,64 459,126 690,186z"/>
      <path fill="#ECDBB5" fill-rule="nonzero" d="M77214 82557c-232,-61 -463,-123 -693,-186 124,-466 247,-932 368,-1398 250,4 501,7 751,8 -140,526 -281,1051 -426,1576z"/>
      <path fill="#ECDBB5" fill-rule="nonzero" d="M74951 89726c-153,431 -308,860 -465,1290 -191,-94 -383,-187 -572,-282 138,-392 276,-786 413,-1180 207,58 416,116 624,172z"/>
      <path fill="#ECDBB5" fill-rule="nonzero" d="M73643 81177c-434,1219 -883,2432 -1345,3643 -211,-70 -421,-142 -632,-215 493,-1198 970,-2401 1432,-3609 181,61 363,122 545,181z"/>
      <path fill="#ECDBB5" fill-rule="nonzero" d="M70679 87052c272,-655 539,-1312 803,-1969 214,74 430,148 645,220 -236,667 -474,1333 -716,1998 -245,-81 -488,-164 -732,-249z"/>
      <path fill="#ECDBB5" fill-rule="nonzero" d="M70507 87461c247,86 494,170 743,253 -268,486 -539,969 -813,1451 -196,-72 -391,-145 -587,-218 223,-494 442,-989 657,-1486z"/>
      <path fill="#ECDBB5" fill-rule="nonzero" d="M77077 88908c302,-1065 594,-2131 878,-3202 253,61 506,120 760,177 -292,1068 -594,2134 -907,3199 -244,-58 -488,-115 -731,-174z"/>
      <path fill="#ECDBB5" fill-rule="nonzero" d="M79472 82862c-208,864 -423,1728 -644,2590 -255,-58 -509,-117 -763,-177 216,-863 426,-1728 630,-2593 259,61 517,121 777,180z"/>
      <path fill="#ECDBB5" fill-rule="nonzero" d="M76965 89339c238,58 477,114 716,169 -260,836 -529,1671 -804,2505 -218,-97 -437,-195 -655,-293 253,-805 500,-1610 741,-2416l2 35z"/>
      <path fill="#ECDBB5" fill-rule="nonzero" d="M79576 82427c-261,-59 -522,-120 -783,-182 120,-535 237,-1072 351,-1607 279,-8 556,-15 833,-26 -131,605 -265,1210 -401,1815z"/>
      <path fill="#ECDBB5" fill-rule="nonzero" d="M81242 91115c203,-904 400,-1806 591,-2711 230,40 461,80 693,116 -201,904 -409,1805 -625,2706 -219,-36 -439,-73 -659,-111z"/>
      <path fill="#ECDBB5" fill-rule="nonzero" d="M82895 86570c-89,505 -181,1010 -274,1514 -233,-37 -466,-75 -698,-116 76,-506 151,-1013 224,-1519 250,42 498,83 748,121z"/>
      <path fill="#ECDBB5" fill-rule="nonzero" d="M83049 85779c-249,-40 -499,-82 -748,-125 191,-969 373,-1937 548,-2907 256,-20 512,-42 768,-65 -180,1033 -369,2066 -568,3097z"/>
      <path fill="#ECDBB5" fill-rule="nonzero" d="M81795 91658c-112,443 -226,888 -342,1331 -204,-75 -408,-150 -611,-228 101,-405 200,-808 295,-1214 220,38 438,74 658,111z"/>
      <path fill="#ECDBB5" fill-rule="nonzero" d="M83644 91047c194,-1035 379,-2071 556,-3108 254,36 508,69 761,100 -184,1036 -379,2070 -584,3104 -245,-31 -489,-62 -733,-96z"/>
      <path fill="#ECDBB5" fill-rule="nonzero" d="M85424 85117c-126,834 -255,1669 -391,2503 -256,-31 -511,-64 -765,-98 128,-836 252,-1672 368,-2508 263,35 524,69 788,103z"/>
      <path fill="#ECDBB5" fill-rule="nonzero" d="M83576 91461c239,34 477,67 717,98 -175,814 -357,1628 -544,2441 -225,-73 -448,-146 -670,-221 169,-783 333,-1566 491,-2350l6 32z"/>
      <path fill="#ECDBB5" fill-rule="nonzero" d="M85484 84696c-263,-32 -526,-66 -790,-102 68,-518 133,-1036 197,-1555 276,-27 550,-60 825,-93 -74,584 -152,1167 -232,1750z"/>
      <polygon fill="url(#id1)" points="28146,58831 28146,58828 "/>
      <path fill="#D9DAD8" fill-rule="nonzero" d="M21097 39668c-7584,-3120 -13635,-4423 -18018,-4951l0 -727c4450,529 10600,1845 18315,5012 -102,220 -201,442 -297,666z"/>
      <path fill="#D9DAD8" d="M28146 58828l0 0c-8,-8 -41,-34 -94,-73 1003,-4791 1592,-9821 1707,-15027 -3077,-1614 -5966,-2952 -8662,-4060 96,-224 195,-446 297,-666 2646,1086 5476,2390 8485,3955 -73,5505 -671,10823 -1733,15871l0 0z"/>
      <path fill="#FDF6D1" fill-rule="nonzero" d="M3079 49961c14034,1772 24635,9385 24813,9566 56,-255 106,-514 160,-772 -1089,-804 -11468,-7838 -24973,-9491l0 697z"/>
      <polygon fill="#FDF6D1" fill-rule="nonzero" points="27892,59527 27892,59530 "/>
      <path fill="#FDF6D1" fill-rule="nonzero" d="M22655 46689c-187,-61 -373,-121 -559,-181 -6,-723 -21,-1449 -47,-2178 208,63 415,127 623,191 4,727 -2,1449 -17,2168zm-254 4404c-163,-57 -326,-113 -489,-169 93,-1286 156,-2583 185,-3893 183,58 366,118 549,179 -50,1307 -132,2602 -245,3883zm-1431 -2638c-204,-64 -407,-126 -610,-188 62,-532 119,-1067 170,-1604 158,53 318,105 478,158 -7,547 -20,1092 -38,1634zm-109 2572c-181,-60 -361,-119 -542,-177 22,-709 33,-1422 34,-2138 200,62 399,124 599,188 -20,712 -51,1422 -91,2127zm-220 2798c-159,-56 -320,-111 -480,-167 59,-760 106,-1527 142,-2296 177,57 354,116 531,174 -53,768 -117,1532 -193,2289zm-1328 -4502c-198,-60 -398,-119 -597,-177 40,-1119 54,-2249 42,-3386 186,50 373,101 560,153 24,1145 22,2282 -5,3410zm-53 1874c-210,-3 -419,-5 -628,-7 28,-533 52,-1067 70,-1604 201,59 402,119 602,179 -10,480 -25,957 -44,1432zm-1793 -1727c-222,-62 -444,-123 -667,-182 25,-869 32,-1744 24,-2622 214,54 427,108 641,164 16,885 17,1765 2,2640zm-45 2053c-234,2 -466,5 -699,8 29,-600 51,-1203 65,-1808 225,60 450,122 675,186 -9,540 -22,1078 -41,1614zm-86 -8455c66,1113 105,2220 120,3319 -210,-55 -422,-109 -633,-161 -4,-1091 -31,-2191 -83,-3298 199,46 398,93 596,140zm-1881 7765c-162,-42 -325,-85 -487,-125 19,-748 25,-1501 20,-2257 179,43 358,86 537,130 -11,755 -35,1505 -70,2252zm46 -4844c16,699 23,1396 20,2090 -181,-45 -364,-88 -545,-130 -18,-696 -46,-1395 -84,-2097 203,44 405,90 609,137zm-546 -2161c163,38 326,79 490,118 21,537 37,1073 47,1606 -206,-46 -412,-93 -617,-138 31,-527 59,-1055 80,-1586zm-903 5519c-206,13 -414,26 -620,41 20,-1005 19,-2016 -3,-3036 205,43 410,86 614,131 22,962 25,1916 9,2864zm-731 -5283c187,36 373,72 560,111 50,506 97,1013 136,1518 -203,-42 -406,-84 -608,-124 -24,-500 -54,-1001 -88,-1505zm-1636 4984c-1,-559 -9,-1122 -23,-1686 215,40 430,81 645,123 19,504 32,1006 40,1506 -221,18 -441,37 -662,57zm-130 -4536c202,34 405,70 608,106 58,824 101,1644 130,2459 -214,-42 -427,-82 -641,-122 -18,-809 -50,-1624 -97,-2443zm-4955 2733c-27,-508 -58,-1018 -96,-1532 201,23 402,45 603,69 39,456 73,910 102,1363 -204,32 -407,66 -609,100zm-1823 651c-31,-572 -70,-1147 -116,-1723 224,18 447,38 672,59 47,513 88,1026 123,1535 -227,42 -453,85 -679,129zm24921 -2986c-2204,-810 -4580,-1423 -7037,-1817 3,325 9,651 8,975 -209,-65 -419,-130 -629,-192 23,-288 41,-577 62,-866 -366,-53 -733,-102 -1101,-145 22,1038 24,2070 6,3095 -165,-51 -331,-102 -497,-152 29,-992 37,-1992 27,-2998 -439,-46 -878,-87 -1320,-120 47,930 79,1855 93,2776 -185,-51 -368,-102 -553,-151 -3,-881 -23,-1766 -56,-2656 -463,-29 -927,-49 -1392,-61l4 58 -13 -37c-34,-8 -69,-16 -103,-24 -713,-17 -1426,-15 -2140,6 126,46 251,91 376,138 -1,253 -2,506 -5,758 -190,-75 -379,-150 -569,-223 -11,-221 -24,-443 -38,-664 -348,12 -695,29 -1042,51 28,359 54,718 76,1076 -185,-37 -370,-74 -555,-108 -15,-310 -35,-621 -53,-932 -407,31 -812,69 -1216,113 39,467 75,933 105,1397 -202,-36 -404,-72 -606,-105 -21,-407 -48,-815 -77,-1224 -314,40 -627,79 -939,127 -134,20 -264,42 -397,63 75,1158 123,2309 142,3450 -165,-27 -329,-54 -493,-78 -35,-1088 -99,-2184 -186,-3286 -923,157 -1809,344 -2663,556 58,552 111,1103 156,1652 -200,-23 -400,-46 -598,-67 -34,-480 -75,-961 -119,-1444 -418,111 -826,228 -1226,350 60,539 117,1077 165,1613 -223,-20 -445,-39 -667,-57 -35,-453 -77,-907 -122,-1362 -489,160 -965,327 -1427,501l0 4368c13505,1653 23884,8687 24973,9491 1003,-4791 1592,-9821 1707,-15027 -18,395 -38,790 -61,1182z"/>
      <path fill="#FDFBDB" fill-rule="nonzero" d="M4448 39351l-16 -32c-192,-11 -384,-21 -576,-30 -127,-829 -268,-1660 -426,-2495 194,50 386,99 579,150 160,805 307,1607 439,2407zm523 3536c-211,-16 -421,-31 -632,-45 -115,-1039 -254,-2084 -419,-3134 197,11 395,21 591,32 179,1053 332,2102 460,3147zm1053 -5476c71,401 137,802 201,1202 -170,-13 -340,-26 -510,-38 -66,-437 -135,-875 -209,-1314 172,49 345,99 518,150zm652 4282c-184,-17 -369,-33 -553,-49 -98,-878 -213,-1758 -345,-2644 172,12 345,27 518,40 145,887 272,1772 380,2653zm1217 -3904c201,1373 363,2737 484,4093 -166,-22 -332,-42 -497,-63 -108,-1369 -255,-2748 -444,-4136 152,35 305,70 457,106zm1721 429c69,529 133,1057 190,1583 -212,-27 -424,-54 -635,-79 -14,-523 -32,-1049 -56,-1576 166,24 334,47 501,72zm443 4081c-189,-27 -376,-53 -563,-78 -79,-687 -169,-1375 -269,-2065 209,25 418,51 627,79 78,690 147,1379 205,2064zm1494 -3925c107,791 200,1579 281,2363l-13 -32c-185,-29 -370,-58 -554,-86 -73,-812 -160,-1627 -261,-2445 182,66 365,133 547,200zm1916 941c47,415 90,829 129,1242 -171,-30 -342,-60 -514,-90 -37,-451 -79,-902 -125,-1355 170,67 340,135 510,203zm1726 256c81,907 144,1810 191,2708 -192,-73 -384,-146 -576,-218 -67,-899 -150,-1802 -249,-2708 212,71 424,144 634,218zm3925 1372c29,424 53,848 75,1271 -172,-43 -342,-87 -513,-130 -18,-460 -41,-922 -67,-1384 168,80 337,162 505,243zm-14612 3452c-37,-377 -77,-755 -120,-1135 213,15 426,30 639,47 38,299 71,596 105,894 400,-122 808,-239 1226,-350 -54,-592 -114,-1186 -184,-1783 185,17 372,33 557,51 69,532 131,1062 188,1591 854,-212 1740,-399 2663,-556 -11,-146 -18,-290 -30,-435 184,24 368,50 552,76 6,91 9,182 15,273 133,-21 263,-43 397,-63 312,-48 625,-87 939,-127 -43,-613 -91,-1228 -149,-1845 189,28 379,57 568,87 60,565 112,1128 159,1690 404,-44 809,-82 1216,-113 -36,-596 -77,-1193 -128,-1792 172,31 345,61 518,92 54,557 100,1111 142,1664 347,-22 694,-39 1042,-51 -2,-33 -3,-65 -5,-98 80,29 161,60 241,89 714,-21 1427,-23 2140,-6 -159,-37 -318,-74 -477,-110 -37,-873 -89,-1750 -154,-2632 189,85 377,171 566,257 73,833 131,1662 177,2488 465,12 929,32 1392,61 -2,-42 -3,-85 -4,-127 172,44 346,88 518,133l2 25c442,33 881,74 1320,120 -4,-444 -11,-889 -22,-1336 151,62 301,124 452,188 15,402 25,803 34,1203 368,43 735,92 1101,145 17,-256 38,-511 54,-767 166,53 332,108 498,163 5,230 4,458 7,687 2457,394 4833,1007 7037,1817 23,-392 43,-787 61,-1182 -11735,-6156 -20739,-8295 -26680,-9011l0 10179c462,-174 938,-341 1427,-501z"/>
      <path fill="#ECDBB5" fill-rule="nonzero" d="M8377 41882c-121,-1356 -283,-2720 -484,-4093 -152,-36 -305,-71 -457,-106 189,1388 336,2767 444,4136 165,21 331,41 497,63z"/>
      <path fill="#ECDBB5" fill-rule="nonzero" d="M15384 42279c-47,-898 -110,-1801 -191,-2708 -210,-74 -422,-147 -634,-218 99,906 182,1809 249,2708 192,72 384,145 576,218z"/>
      <path fill="#ECDBB5" fill-rule="nonzero" d="M14859 43274c190,73 379,148 569,223 3,-252 4,-505 5,-758 -125,-47 -250,-92 -376,-138 -78,2 -157,6 -236,9 14,221 27,443 38,664z"/>
      <path fill="#ECDBB5" fill-rule="nonzero" d="M14821 42610c79,-3 158,-7 236,-9 -80,-29 -161,-60 -241,-89 2,33 3,65 5,98z"/>
      <path fill="#ECDBB5" fill-rule="nonzero" d="M6123 41644c184,16 369,32 553,49 -108,-881 -235,-1766 -380,-2653 -173,-13 -346,-28 -518,-40 132,886 247,1766 345,2644z"/>
      <path fill="#ECDBB5" fill-rule="nonzero" d="M6475 45295c198,21 398,44 598,67 -45,-549 -98,-1100 -156,-1652 -188,46 -377,92 -561,141 44,483 85,964 119,1444z"/>
      <path fill="#ECDBB5" fill-rule="nonzero" d="M6172 42068c70,597 130,1191 184,1783 184,-49 373,-95 561,-141 -57,-529 -119,-1059 -188,-1591 -185,-18 -372,-34 -557,-51z"/>
      <path fill="#ECDBB5" fill-rule="nonzero" d="M6504 45713c38,514 69,1024 96,1532 202,-34 405,-68 609,-100 -29,-453 -63,-907 -102,-1363 -201,-24 -402,-46 -603,-69z"/>
      <path fill="#ECDBB5" fill-rule="nonzero" d="M6225 38613c-64,-400 -130,-801 -201,-1202 -173,-51 -346,-101 -518,-150 74,439 143,877 209,1314 170,12 340,25 510,38z"/>
      <path fill="#ECDBB5" fill-rule="nonzero" d="M9766 46440c164,24 328,51 493,78 -19,-1141 -67,-2292 -142,-3450 -179,28 -360,55 -537,86 87,1102 151,2198 186,3286z"/>
      <path fill="#ECDBB5" fill-rule="nonzero" d="M9550 42719c12,145 19,289 30,435 177,-31 358,-58 537,-86 -6,-91 -9,-182 -15,-273 -184,-26 -368,-52 -552,-76z"/>
      <path fill="#ECDBB5" fill-rule="nonzero" d="M9494 42221c187,25 374,51 563,78 -58,-685 -127,-1374 -205,-2064 -209,-28 -418,-54 -627,-79 100,690 190,1378 269,2065z"/>
      <path fill="#ECDBB5" fill-rule="nonzero" d="M14968 50708c162,40 325,83 487,125 35,-747 59,-1497 70,-2252 -179,-44 -358,-87 -537,-130 5,756 -1,1509 -20,2257z"/>
      <path fill="#ECDBB5" fill-rule="nonzero" d="M15521 48079c3,-694 -4,-1391 -20,-2090 -204,-47 -406,-93 -609,-137 38,702 66,1401 84,2097 181,42 364,85 545,130z"/>
      <path fill="#ECDBB5" fill-rule="nonzero" d="M15445 43946c-164,-39 -327,-80 -490,-118 -21,531 -49,1059 -80,1586 205,45 411,92 617,138 -10,-533 -26,-1069 -47,-1606z"/>
      <path fill="#ECDBB5" fill-rule="nonzero" d="M20161 53658c160,56 321,111 480,167 76,-757 140,-1521 193,-2289 -177,-58 -354,-117 -531,-174 -36,769 -83,1536 -142,2296z"/>
      <path fill="#ECDBB5" fill-rule="nonzero" d="M20319 50850c181,58 361,117 542,177 40,-705 71,-1415 91,-2127 -200,-64 -399,-126 -599,-188 -1,716 -12,1429 -34,2138z"/>
      <path fill="#ECDBB5" fill-rule="nonzero" d="M20360 48267c203,62 406,124 610,188 18,-542 31,-1087 38,-1634 -160,-53 -320,-105 -478,-158 -51,537 -108,1072 -170,1604z"/>
      <path fill="#ECDBB5" fill-rule="nonzero" d="M4339 42842c211,14 421,29 632,45 -128,-1045 -281,-2094 -460,-3147 -196,-11 -394,-21 -591,-32 165,1050 304,2095 419,3134z"/>
      <path fill="#ECDBB5" fill-rule="nonzero" d="M4628 45757c222,18 444,37 667,57 -48,-536 -105,-1074 -165,-1613 -210,64 -419,128 -624,194 45,455 87,909 122,1362z"/>
      <path fill="#ECDBB5" fill-rule="nonzero" d="M4386 43260c43,380 83,758 120,1135 205,-66 414,-130 624,-194 -34,-298 -67,-595 -105,-894 -213,-17 -426,-32 -639,-47z"/>
      <path fill="#ECDBB5" fill-rule="nonzero" d="M3856 39289c192,9 384,19 576,30l16 32c-132,-800 -279,-1602 -439,-2407 -193,-51 -385,-100 -579,-150 158,835 299,1666 426,2495z"/>
      <path fill="#ECDBB5" fill-rule="nonzero" d="M4661 46173c46,576 85,1151 116,1723 226,-44 452,-87 679,-129 -35,-509 -76,-1022 -123,-1535 -225,-21 -448,-41 -672,-59z"/>
      <path fill="#ECDBB5" fill-rule="nonzero" d="M20510 45808c166,50 332,101 497,152 18,-1025 16,-2057 -6,-3095 -154,-18 -309,-38 -464,-55 10,1006 2,2006 -27,2998z"/>
      <path fill="#ECDBB5" fill-rule="nonzero" d="M20515 41474c11,447 18,892 22,1336 155,17 310,37 464,55 -9,-400 -19,-801 -34,-1203 -151,-64 -301,-126 -452,-188z"/>
      <path fill="#ECDBB5" fill-rule="nonzero" d="M18757 45315c185,49 368,100 553,151 -14,-921 -46,-1846 -93,-2776 -172,-13 -344,-21 -516,-31 33,890 53,1775 56,2656z"/>
      <path fill="#ECDBB5" fill-rule="nonzero" d="M18697 42532c1,42 2,85 4,127 172,10 344,18 516,31l-2 -25c-172,-45 -346,-89 -518,-133z"/>
      <path fill="#ECDBB5" fill-rule="nonzero" d="M18758 45760c12,1137 -2,2267 -42,3386 199,58 399,117 597,177 27,-1128 29,-2265 5,-3410 -187,-52 -374,-103 -560,-153z"/>
      <path fill="#ECDBB5" fill-rule="nonzero" d="M18632 51190c209,2 418,4 628,7 19,-475 34,-952 44,-1432 -200,-60 -401,-120 -602,-179 -18,537 -42,1071 -70,1604z"/>
      <path fill="#ECDBB5" fill-rule="nonzero" d="M19193 42214c-22,-423 -46,-847 -75,-1271 -168,-81 -337,-163 -505,-243 26,462 49,924 67,1384 171,43 341,87 513,130z"/>
      <path fill="#ECDBB5" fill-rule="nonzero" d="M21912 50924c163,56 326,112 489,169 113,-1281 195,-2576 245,-3883 -183,-61 -366,-121 -549,-179 -29,1310 -92,2607 -185,3893z"/>
      <path fill="#ECDBB5" fill-rule="nonzero" d="M22096 46508c186,60 372,120 559,181 15,-719 21,-1441 17,-2168 -208,-64 -415,-128 -623,-191 26,729 41,1455 47,2178z"/>
      <path fill="#ECDBB5" fill-rule="nonzero" d="M22040 43876c210,62 420,127 629,192 1,-324 -5,-650 -8,-975 -186,-29 -373,-56 -559,-83 -21,289 -39,578 -62,866z"/>
      <path fill="#ECDBB5" fill-rule="nonzero" d="M22156 42243c-16,256 -37,511 -54,767 186,27 373,54 559,83 -3,-229 -2,-457 -7,-687 -166,-55 -332,-110 -498,-163z"/>
      <path fill="#ECDBB5" fill-rule="nonzero" d="M17456 46387c-15,-1099 -54,-2206 -120,-3319 -198,-47 -397,-94 -596,-140 52,1107 79,2207 83,3298 211,52 423,106 633,161z"/>
      <path fill="#ECDBB5" fill-rule="nonzero" d="M16824 46666c8,878 1,1753 -24,2622 223,59 445,120 667,182 15,-875 14,-1755 -2,-2640 -214,-56 -427,-110 -641,-164z"/>
      <path fill="#ECDBB5" fill-rule="nonzero" d="M17300 42619l13 37 -4 -58c-37,-1 -75,-2 -112,-3 34,8 69,16 103,24z"/>
      <path fill="#ECDBB5" fill-rule="nonzero" d="M16566 39853c65,882 117,1759 154,2632 159,36 318,73 477,110 37,1 75,2 112,3 -46,-826 -104,-1655 -177,-2488 -189,-86 -377,-172 -566,-257z"/>
      <path fill="#ECDBB5" fill-rule="nonzero" d="M16723 51531c233,-3 465,-6 699,-8 19,-536 32,-1074 41,-1614 -225,-64 -450,-126 -675,-186 -14,605 -36,1208 -65,1808z"/>
      <path fill="#ECDBB5" fill-rule="nonzero" d="M13300 43629c185,34 370,71 555,108 -22,-358 -48,-717 -76,-1076 -178,11 -355,22 -532,36 18,311 38,622 53,932z"/>
      <path fill="#ECDBB5" fill-rule="nonzero" d="M13119 40905c51,599 92,1196 128,1792 177,-14 354,-25 532,-36 -42,-553 -88,-1107 -142,-1664 -173,-31 -346,-61 -518,-92z"/>
      <path fill="#ECDBB5" fill-rule="nonzero" d="M13881 44175c-187,-39 -373,-75 -560,-111 34,504 64,1005 88,1505 202,40 405,82 608,124 -39,-505 -86,-1012 -136,-1518z"/>
      <path fill="#ECDBB5" fill-rule="nonzero" d="M13429 46352c22,1020 23,2031 3,3036 206,-15 414,-28 620,-41 16,-948 13,-1902 -9,-2864 -204,-45 -409,-88 -614,-131z"/>
      <path fill="#ECDBB5" fill-rule="nonzero" d="M13596 40557c-39,-413 -82,-827 -129,-1242 -170,-68 -340,-136 -510,-203 46,453 88,904 125,1355 172,30 343,60 514,90z"/>
      <path fill="#ECDBB5" fill-rule="nonzero" d="M11530 44102c202,33 404,69 606,105 -30,-464 -66,-930 -105,-1397 -193,21 -386,44 -578,68 29,409 56,817 77,1224z"/>
      <path fill="#ECDBB5" fill-rule="nonzero" d="M11304 41033c58,617 106,1232 149,1845 192,-24 385,-47 578,-68 -47,-562 -99,-1125 -159,-1690 -189,-30 -379,-59 -568,-87z"/>
      <path fill="#ECDBB5" fill-rule="nonzero" d="M12163 44618c-203,-36 -406,-72 -608,-106 47,819 79,1634 97,2443 214,40 427,80 641,122 -29,-815 -72,-1635 -130,-2459z"/>
      <path fill="#ECDBB5" fill-rule="nonzero" d="M11819 40705l13 32c-81,-784 -174,-1572 -281,-2363 -182,-67 -365,-134 -547,-200 101,818 188,1633 261,2445 184,28 369,57 554,86z"/>
      <path fill="#ECDBB5" fill-rule="nonzero" d="M11662 47362c14,564 22,1127 23,1686 221,-20 441,-39 662,-57 -8,-500 -21,-1002 -40,-1506 -215,-42 -430,-83 -645,-123z"/>
      <polygon fill="#A63E33" fill-rule="nonzero" points="103783,50007 103781,49967 "/>
      <path fill="#B3463C" fill-rule="nonzero" d="M108404 51900c0,0 -1,-1 -1,-1 -5,-247 -11,-496 -18,-747 1,0 1,0 1,1 8,250 14,499 18,747z"/>
      <polygon fill="#FDF6D1" fill-rule="nonzero" points="103716,50678 103718,50717 103718,50718 "/>
      <polygon fill="#FDFBDB" fill-rule="nonzero" points="103718,50717 103716,50678 "/>
     </g>
    </g>
   </g>
   <path fill="none" fill-rule="nonzero" d="M101293 56621c0,27642 -22408,50050 -50050,50050 -27643,0 -50050,-22408 -50050,-50050 0,-27641 22407,-50050 50050,-50050 27642,0 50050,22409 50050,50050z"/>
   <g>
    <path fill="#F4D0A9" fill-rule="nonzero" d="M30196 84550l-36 0 0 -11921 4648 0 487 -1258 5644 -5740c0,0 351,-269 970,-232 1397,81 9035,2021 10340,4169 3616,5951 1159,16495 1159,16495l-23799 0 587 -1513z"/>
    <path fill="#EBC5A3" fill-rule="nonzero" d="M37589 77430c2531,0 4317,-497 5893,-3194l-317 -185c-1789,3059 -3788,3121 -7169,2966l-17 367c569,26 1105,46 1610,46z"/>
    <path fill="#3F3F3E" fill-rule="nonzero" d="M55290 76828c758,1586 -154,3022 -1737,3016l-5885 0c-1583,-7 -2042,-727 -2042,-3316 0,-10907 -11,-21490 -11,-21490 -303,-1519 779,-2755 2232,-3135l4661 -1314c1366,-378 3070,762 2741,2589 0,0 -3539,16152 41,23650z"/>
    <path fill="#282627" fill-rule="nonzero" d="M53691 67866c0,-8052 1558,-14688 1558,-14688 329,-1827 -1375,-2967 -2741,-2589l-4661 1314c-1453,380 -2535,1616 -2232,3135 0,0 -51,5589 8,12828 2461,0 5245,0 8068,0z"/>
    <path fill="#F4D0A9" fill-rule="nonzero" d="M51202 74199c-1214,193 -2044,1331 -1852,2545 194,1215 1332,2043 2546,1851l3300 -521c1213,-192 2041,-1332 1848,-2545 -191,-1214 -1329,-2043 -2544,-1851l-3298 521z"/>
    <path fill="#F6D9BA" fill-rule="nonzero" d="M51387 77757c-715,0 -1438,-276 -1441,-1294 -1,-1220 717,-1580 1714,-1580 180,0 368,12 564,32 1277,135 1422,1131 1400,1477 -56,882 -796,1150 -1628,1305 -189,36 -399,60 -609,60z"/>
    <path fill="#F4D0A9" fill-rule="nonzero" d="M51150 78583c-1125,42 -2001,991 -1957,2113 43,1125 991,2000 2116,1957l3053 -118c1123,-42 1999,-991 1956,-2113 -44,-1126 -991,-2002 -2115,-1958l-3053 119z"/>
    <path fill="#F6D9BA" fill-rule="nonzero" d="M50992 81940c-659,0 -1326,-254 -1328,-1193 -1,-1125 662,-1457 1582,-1457 165,0 338,11 518,30 1177,125 1310,1043 1291,1362 -52,814 -734,1060 -1501,1203 -175,33 -368,55 -562,55z"/>
    <path fill="#F4D0A9" fill-rule="nonzero" d="M50108 82776c-1001,39 -1779,880 -1739,1880 37,996 880,1778 1878,1739l2712 -107c999,-36 1776,-881 1740,-1879 -39,-999 -880,-1776 -1879,-1738l-2712 105z"/>
    <path fill="#F6D9BA" fill-rule="nonzero" d="M50127 85739c-597,0 -1201,-231 -1204,-1082 0,-1021 600,-1323 1435,-1323 150,0 308,10 471,27 1069,113 1189,946 1172,1236 -47,739 -666,961 -1362,1091 -160,30 -335,51 -512,51z"/>
    <path fill="#F4D0A9" fill-rule="nonzero" d="M50934 69467c-1247,197 -2098,1367 -1901,2613 199,1249 1369,2099 2614,1902l3389 -535c1247,-198 2097,-1368 1899,-2615 -196,-1246 -1366,-2099 -2613,-1901l-3388 536z"/>
    <path fill="#F6D9BA" fill-rule="nonzero" d="M51124 73120c-734,0 -1477,-283 -1480,-1329 0,-1252 738,-1622 1762,-1622 185,0 378,12 578,33 1311,139 1459,1162 1438,1516 -58,907 -818,1181 -1671,1341 -196,37 -411,61 -627,61z"/>
    <path fill="#F4D0A9" fill-rule="nonzero" d="M40129 67337c0,1077 873,1949 1949,1949l8959 0c1077,0 1950,-872 1950,-1949 0,-1077 -873,-1950 -1950,-1950l-8959 0c-1076,0 -1949,873 -1949,1950z"/>
    <path fill="#444342" fill-rule="nonzero" d="M52276 65831c-280,-231 -626,-385 -1006,-430 332,17 651,93 868,283 53,47 99,96 138,147z"/>
    <path fill="#F6D9BA" fill-rule="nonzero" d="M52484 66604l-2558 0 0 -1038c228,-59 715,-168 1198,-168 49,0 97,1 146,3 380,45 726,199 1006,430 184,240 225,521 208,773z"/>
    <path fill="#3F3F3E" fill-rule="nonzero" d="M45996 39934c-16439,841 -13112,8390 -12926,12424 193,4030 2199,12718 18030,7730l-5104 -20154z"/>
    <path fill="#C34435" fill-rule="nonzero" d="M45278 40053c25266,-3996 45034,-30076 45034,-30076l11007 63762c0,0 -26798,-16415 -51095,-13504 -9743,-7979 -5426,-18666 -4946,-20182z"/>
    <path fill="#E2564A" fill-rule="nonzero" d="M44073 49702c-658,-4764 925,-8765 1205,-9649 25266,-3996 45034,-30076 45034,-30076l3828 22177c-13526,8323 -31348,16537 -50067,17548z"/>
    <path fill="#D14E3F" fill-rule="nonzero" d="M92519 22763l1621 9391c-13526,8323 -31348,16537 -50067,17548 -173,-1256 -190,-2459 -117,-3565 18570,-3774 35508,-13628 48563,-23374z"/>
    <path fill="#3F3F3E" fill-rule="nonzero" d="M101319 73739c0,0 -6476,-4254 -16002,-8082 -10077,-17859 -9644,-33154 -7747,-42383 7904,-6931 12742,-13297 12742,-13297l11007 63762z"/>
    <path fill="#FDF6DE" fill-rule="nonzero" stroke="#D9DAD8" stroke-width="90" stroke-miterlimit="10" d="M85312 43796c3132,18164 11071,31955 17724,30806 6662,-1144 9525,-16803 6397,-34963 -3140,-18160 -11075,-31944 -17743,-30799 -6653,1146 -9509,16794 -6378,34956z"/>
    <path fill="#C34435" fill-rule="nonzero" d="M90136 42965c2564,14863 8471,26245 13186,25437 4727,-822 6479,-13524 3907,-28389 -2554,-14855 -8464,-26244 -13190,-25426 -4724,814 -6465,13522 -3903,28378z"/>
    <path fill="#D14E41" fill-rule="nonzero" d="M107229 44997c-2554,-14855 -8464,-26244 -13190,-25427 -2933,506 -4716,5597 -5033,12940 -391,-9946 1474,-17310 5033,-17923 4726,-818 10636,10571 13190,25426 975,5636 1328,10959 1134,15443 -128,-3257 -499,-6792 -1134,-10459z"/>
    <path fill="#D8534A" fill-rule="nonzero" d="M107872 47409c190,1096 354,2179 497,3248 61,1681 59,3289 -6,4799 -128,-3257 -499,-6792 -1134,-10459 -363,-2111 -794,-4153 -1280,-6099 753,2647 1407,5508 1923,8511z"/>
    <path fill="#D8534A" fill-rule="nonzero" d="M94039 14587c4054,-702 8980,7580 11910,19327 -2972,-10449 -7497,-17568 -11267,-16916 -2096,361 -3605,3066 -4411,7260 -692,2170 -1124,4988 -1265,8252 -391,-9946 1474,-17310 5033,-17923z"/>
    <path fill="#585755" fill-rule="nonzero" d="M36316 45045c133,757 1081,1220 2119,1037 1044,-177 1789,-935 1655,-1684 -131,-751 -1080,-1215 -2122,-1037 -1042,178 -1777,937 -1652,1684z"/>
    <path fill="#FDF6DE" fill-rule="nonzero" d="M104527 40029c756,4364 -2172,8503 -6532,9250l-6231 1084c-623,-2335 -1184,-4806 -1628,-7398 -505,-2911 -833,-5730 -1014,-8401l6149 -1059c4365,-757 8508,2169 9256,6524z"/>
    <path fill="#E1CEA5" fill-rule="nonzero" d="M97302 49406l-5538 957c-623,-2335 -1184,-4806 -1628,-7398 -505,-2911 -833,-5730 -1014,-8401l4859 -839c-348,1417 -1011,3234 -1111,5160 -200,3834 877,8103 4432,10521z"/>
    <path fill="#E1CEA5" fill-rule="nonzero" d="M95717 37935c0,1421 1152,2572 2572,2572 1421,0 2573,-1151 2573,-2572 0,-1421 -1152,-2572 -2573,-2572 -1420,0 -2572,1151 -2572,2572z"/>
    <path fill="#D9DAD8" fill-rule="nonzero" d="M48298 30831c-1423,0 -2906,-244 -4477,-812 -2155,-781 -4398,-1448 -6657,-1607 -1550,-2133 -2971,-4306 -4263,-6507 1,0 2,0 3,0 401,-1 16724,-1984 28997,-13117 429,412 866,820 1311,1223l11 -45c3243,2957 6913,5677 10980,8065 -303,4 -2050,2230 -6248,5250 -7614,2266 -13019,7550 -19657,7550z"/>
    <path fill="#D9DAD8" d="M42201 34678c-1807,-2040 -3486,-4133 -5037,-6266 2259,159 4502,826 6657,1607 1571,568 3054,812 4477,812 6638,0 12043,-5284 19657,-7550 -4830,3475 -12906,8001 -25754,11397z"/>
    <path fill="#D9DAD8" fill-rule="nonzero" d="M32901 21905c-5,-1 -5,-1 -1,-2 0,0 1,1 1,2zm41341 -3851c-13,-7 -26,-15 -39,-23 1,0 1,0 1,0 17,0 30,8 38,23z"/>
    <path fill="#FDF6D1" fill-rule="nonzero" d="M41775 34033c-3564,-4096 -6620,-8399 -9155,-12811 -252,78 16406,-1694 28876,-12972 3520,3451 7600,6612 12197,9350 -299,-580 -7349,10031 -31918,16433z"/>
    <path fill="#FDFBDB" fill-rule="nonzero" d="M56346 21749c3605,-4381 5580,-8751 6455,-12313 3209,2988 6850,5740 10892,8164 -299,-580 -7349,10031 -31918,16433 -250,-301 -497,-603 -742,-905 5622,-2282 11213,-6325 15313,-11379z"/>
    <path fill="#ECDBB5" fill-rule="nonzero" d="M61738 23823c-1062,-871 -2088,-1763 -3079,-2675 135,-94 270,-190 405,-285 990,930 2017,1842 3079,2732 -135,76 -270,152 -405,228z"/>
    <path fill="#ECDBB5" fill-rule="nonzero" d="M55207 27379c-663,-611 -1311,-1230 -1944,-1856 190,-75 380,-149 568,-224 647,614 1309,1219 1985,1817 -202,89 -406,176 -609,263z"/>
    <path fill="#ECDBB5" fill-rule="nonzero" d="M52922 25219c-168,-185 -336,-371 -501,-558 189,-71 376,-143 565,-216 178,177 358,353 538,529 -200,83 -401,164 -602,245z"/>
    <path fill="#ECDBB5" fill-rule="nonzero" d="M62074 21844c-697,-554 -1379,-1117 -2046,-1690 147,-110 293,-222 438,-332 657,577 1328,1145 2014,1705 -134,106 -271,211 -406,317z"/>
    <path fill="#ECDBB5" fill-rule="nonzero" d="M57778 17383c767,732 1557,1452 2370,2160 -146,112 -294,223 -442,334 -826,-701 -1631,-1417 -2411,-2145 162,-116 324,-232 483,-349z"/>
    <path fill="#ECDBB5" fill-rule="nonzero" d="M57478 17096c-162,118 -324,235 -487,352 -332,-308 -659,-619 -982,-930 127,-160 254,-320 379,-480 358,355 721,707 1090,1058z"/>
    <path fill="#ECDBB5" fill-rule="nonzero" d="M62809 21797c339,276 681,550 1027,822 -158,79 -318,158 -478,236 -319,-247 -635,-496 -948,-746 134,-104 267,-208 399,-312z"/>
    <path fill="#ECDBB5" fill-rule="nonzero" d="M54606 18736c849,875 1728,1736 2636,2580 -150,106 -302,209 -455,312 -895,-858 -1759,-1733 -2594,-2621 139,-90 277,-179 413,-271z"/>
    <path fill="#ECDBB5" fill-rule="nonzero" d="M58675 23337c-517,-454 -1025,-913 -1525,-1376 156,-106 311,-212 464,-317 516,450 1040,894 1573,1333 -170,120 -340,240 -512,360z"/>
    <path fill="#ECDBB5" fill-rule="nonzero" d="M58999 23622c173,-122 346,-243 517,-366 359,374 722,747 1090,1117 -137,93 -275,188 -414,281 -402,-341 -801,-685 -1193,-1032z"/>
    <path fill="#ECDBB5" fill-rule="nonzero" d="M47956 19075c485,560 981,1116 1488,1666 -159,87 -319,175 -480,263 -494,-561 -976,-1126 -1448,-1696 147,-77 294,-154 440,-233z"/>
    <path fill="#ECDBB5" fill-rule="nonzero" d="M50708 22885c-477,-501 -946,-1006 -1406,-1517 162,-88 324,-178 485,-268 477,498 963,992 1459,1480 -179,102 -358,204 -538,305z"/>
    <path fill="#ECDBB5" fill-rule="nonzero" d="M51005 23198c182,-102 364,-205 544,-309 328,407 660,812 998,1214 -145,81 -292,161 -438,241 -373,-380 -741,-762 -1104,-1146z"/>
    <path fill="#ECDBB5" fill-rule="nonzero" d="M42190 20373c463,596 939,1188 1425,1776 -168,75 -336,150 -505,225 -473,-597 -934,-1198 -1383,-1804 154,-65 308,-131 463,-197z"/>
    <path fill="#ECDBB5" fill-rule="nonzero" d="M44779 24383c-459,-535 -909,-1075 -1350,-1617 172,-77 344,-154 515,-231 456,533 922,1062 1398,1587 -187,88 -375,175 -563,261z"/>
    <path fill="#ECDBB5" fill-rule="nonzero" d="M45062 24721c192,-89 382,-179 572,-268 308,431 623,859 943,1287 -151,67 -303,135 -455,202 -359,-405 -713,-812 -1060,-1221z"/>
    <path fill="#ECDBB5" fill-rule="nonzero" d="M62915 20142c-832,-652 -1643,-1318 -2432,-1998 165,-128 328,-257 491,-388 777,685 1575,1357 2394,2016 -151,124 -302,247 -453,370z"/>
    <path fill="#ECDBB5" fill-rule="nonzero" d="M58822 15815c600,563 1214,1119 1840,1667 -165,131 -332,261 -499,391 -636,-544 -1259,-1096 -1867,-1656 177,-133 352,-267 526,-402z"/>
    <path fill="#ECDBB5" fill-rule="nonzero" d="M63252 20398c149,-120 296,-241 443,-362 644,523 1301,1037 1972,1543 -175,93 -349,184 -523,276 -653,-483 -1295,-972 -1924,-1470l32 13z"/>
    <path fill="#ECDBB5" fill-rule="nonzero" d="M58521 15533c-176,135 -353,269 -531,403 -376,-344 -748,-692 -1112,-1042 138,-181 275,-363 411,-545 404,397 815,792 1232,1184z"/>
    <path fill="#ECDBB5" fill-rule="nonzero" d="M49587 29691c-1001,-1022 -1964,-2063 -2891,-3119 155,-73 310,-146 465,-219 923,1075 1884,2134 2883,3176 -152,55 -304,109 -457,162z"/>
    <path fill="#ECDBB5" fill-rule="nonzero" d="M50202 27792c-660,-655 -1305,-1318 -1935,-1988 170,-85 338,-170 506,-258 617,673 1249,1339 1897,1998 -155,82 -312,166 -468,248z"/>
    <path fill="#ECDBB5" fill-rule="nonzero" d="M46252 22714c717,846 1458,1683 2224,2508 -170,87 -340,174 -512,260 -780,-823 -1536,-1656 -2267,-2500 185,-88 371,-177 555,-268z"/>
    <path fill="#ECDBB5" fill-rule="nonzero" d="M45969 22383c-186,90 -373,180 -560,270 -312,-359 -619,-718 -921,-1078 156,-138 310,-275 464,-413 335,409 673,816 1017,1221z"/>
    <path fill="#ECDBB5" fill-rule="nonzero" d="M50981 27860c319,325 643,648 971,969 -177,53 -355,106 -532,159 -304,-292 -604,-586 -902,-882 155,-82 309,-163 463,-246z"/>
    <path fill="#ECDBB5" fill-rule="nonzero" d="M42729 23541c787,1003 1605,1995 2457,2973 -174,79 -347,157 -521,234 -834,-989 -1637,-1992 -2407,-3005 157,-67 314,-134 471,-202z"/>
    <path fill="#ECDBB5" fill-rule="nonzero" d="M46435 28734c-487,-529 -963,-1062 -1431,-1599 178,-79 354,-158 530,-239 485,526 980,1047 1484,1564 -194,92 -388,183 -583,274z"/>
    <path fill="#ECDBB5" fill-rule="nonzero" d="M46739 29065c197,-93 393,-185 589,-279 329,427 663,850 1002,1273 -157,71 -315,142 -473,212 -378,-400 -751,-802 -1118,-1206z"/>
    <path fill="#ECDBB5" fill-rule="nonzero" d="M51309 26246c-789,-772 -1555,-1556 -2298,-2350 191,-101 382,-202 571,-305 730,797 1482,1584 2257,2360 -176,99 -353,197 -530,295z"/>
    <path fill="#ECDBB5" fill-rule="nonzero" d="M47560 21335c561,652 1138,1298 1728,1935 -192,103 -384,205 -578,307 -601,-637 -1188,-1281 -1759,-1931 204,-103 406,-206 609,-311z"/>
    <path fill="#ECDBB5" fill-rule="nonzero" d="M51634 26550c173,-95 344,-191 515,-288 608,615 1230,1222 1865,1824 -195,64 -389,126 -585,189 -623,-575 -1232,-1156 -1828,-1744l33 19z"/>
    <path fill="#ECDBB5" fill-rule="nonzero" d="M47279 21008c-204,105 -411,210 -618,313 -353,-400 -701,-803 -1044,-1209 169,-156 338,-313 506,-471 378,459 764,915 1156,1367z"/>
    <path fill="#ECDBB5" fill-rule="nonzero" d="M55396 25298c-676,-612 -1338,-1232 -1984,-1860 161,-96 320,-193 479,-291 634,633 1282,1258 1946,1874 -147,92 -293,185 -441,277z"/>
    <path fill="#ECDBB5" fill-rule="nonzero" d="M52519 21799c351,350 706,698 1067,1043 -161,99 -322,196 -484,293 -374,-338 -745,-678 -1111,-1022 177,-104 353,-209 528,-314z"/>
    <path fill="#ECDBB5" fill-rule="nonzero" d="M51983 21239c-179,105 -357,210 -537,313 -656,-689 -1294,-1386 -1914,-2090 143,-147 286,-295 428,-443 653,749 1328,1489 2023,2220z"/>
    <path fill="#ECDBB5" fill-rule="nonzero" d="M56155 25317c328,305 659,608 994,909 -169,64 -339,128 -508,191 -311,-273 -618,-547 -922,-824 146,-91 291,-183 436,-276z"/>
    <path fill="#ECDBB5" fill-rule="nonzero" d="M56607 24033c-769,-684 -1519,-1378 -2249,-2084 172,-108 343,-217 513,-326 717,708 1453,1407 2210,2096 -157,105 -316,211 -474,314z"/>
    <path fill="#ECDBB5" fill-rule="nonzero" d="M52882 19615c553,580 1119,1155 1699,1724 -172,109 -344,218 -517,327 -591,-565 -1168,-1136 -1732,-1713 184,-113 367,-225 550,-338z"/>
    <path fill="#ECDBB5" fill-rule="nonzero" d="M56922 24301c155,-101 309,-204 463,-305 594,545 1200,1084 1818,1616 -177,73 -355,146 -533,218 -605,-508 -1197,-1023 -1779,-1543l31 14z"/>
    <path fill="#ECDBB5" fill-rule="nonzero" d="M52605 19324c-184,113 -370,226 -555,339 -349,-356 -693,-715 -1032,-1076 150,-161 298,-321 447,-483 373,409 753,816 1140,1220z"/>
    <path fill="#D9DAD8" d="M98696 98650c-4524,0 -10882,-517 -18281,-2702 19,-45 38,-90 56,-136 71,-174 141,-349 207,-523 7031,1976 13071,2453 17419,2453 2028,0 3689,-104 4909,-208 1220,-104 2001,-207 2271,-207 38,0 65,1 83,6 1,14 1,28 2,42 28,-21 27,-35 -2,-42 -261,-5347 -761,-10655 -1497,-15909 153,-19 308,-39 462,-59 98,673 180,1350 270,2024l63 -45c646,4923 1081,9893 1303,14899 23,7 28,19 1,39l-2 -39c-17,-5 -47,-8 -89,-8 -270,0 -1050,104 -2270,207 -1219,104 -2877,208 -4905,208l0 0z"/>
    <path fill="#D9DAD8" d="M80415 95948c-127,-38 -253,-75 -381,-114 91,-218 179,-435 264,-653 127,37 253,72 380,108 -66,174 -136,349 -207,523 -18,46 -37,91 -56,136l0 0z"/>
    <path fill="#D9DAD8" fill-rule="nonzero" d="M80034 95834l-1 0c92,-218 180,-435 264,-653l1 0c-85,218 -173,435 -264,653zm-715 -220c-799,-250 -1608,-520 -2428,-811 148,-344 59,-605 -197,-766 979,341 1943,651 2890,935 -85,214 -173,428 -265,642zm-4551 -1602c-3810,-1491 -7817,-3440 -11935,-5978 197,-32 383,-87 555,-166 1401,1191 3206,2207 5308,2828 2593,1270 5120,2321 7556,3186 -119,-20 -250,-31 -391,-31 -126,0 -259,8 -400,25 -231,28 -464,74 -693,136z"/>
    <path fill="#D9DAD8" fill-rule="nonzero" d="M76891 94803c-700,-248 -1408,-512 -2123,-791 229,-62 462,-108 693,-136 141,-17 274,-25 400,-25 141,0 272,11 391,31 147,52 295,104 442,155 256,161 345,422 197,766z"/>
    <path fill="#D9DAD8" fill-rule="nonzero" stroke="#D9DAD8" stroke-width="90" stroke-miterlimit="10" d="M80033 95834c-237,-71 -475,-145 -714,-220 92,-214 180,-428 265,-642 238,71 477,141 713,209 -84,218 -172,435 -264,653zm-11337 -5138c-2102,-621 -3907,-1637 -5308,-2828 -172,79 -358,134 -555,166 -366,-226 -735,-458 -1103,-693 80,-126 159,-252 238,-379 2280,1419 4528,2656 6728,3734z"/>
    <path fill="#FDF6D1" fill-rule="nonzero" d="M61130 86434c2772,-4395 5303,-8905 7585,-13510 -109,-232 2394,1892 7261,4016 5912,2579 15310,5158 27749,3518 814,5582 1360,11228 1637,16917 165,-126 -682,17 -2356,159 -6050,514 -22906,1029 -41876,-11100z"/>
    <path fill="#FDFBDB" fill-rule="nonzero" d="M86012 89144c7723,-922 13997,-3717 18046,-6707 647,4935 1083,9918 1304,14938 760,-579 -20013,4544 -44232,-10941 211,-314 421,-629 630,-945 6474,3066 15379,4792 24252,3655z"/>
    <path fill="#ECDBB5" fill-rule="nonzero" d="M87888 94453c240,-1399 463,-2801 667,-4202 216,17 432,33 649,47 -219,1422 -461,2844 -723,4263 -198,-35 -396,-71 -593,-108z"/>
    <path fill="#ECDBB5" fill-rule="nonzero" d="M78610 92399c259,-871 512,-1743 758,-2617 227,82 456,163 687,243 -220,877 -444,1754 -677,2630 -257,-84 -513,-169 -768,-256z"/>
    <path fill="#ECDBB5" fill-rule="nonzero" d="M79458 89335c85,-247 170,-492 252,-737 224,80 448,159 673,238 -62,249 -125,499 -188,747 -246,-82 -493,-164 -737,-248z"/>
    <path fill="#ECDBB5" fill-rule="nonzero" d="M90536 93143c92,-922 178,-1843 256,-2766 244,10 488,18 733,25 -87,922 -182,1843 -285,2765 -235,-7 -469,-15 -704,-24z"/>
    <path fill="#ECDBB5" fill-rule="nonzero" d="M91802 86544c-68,1138 -146,2274 -236,3412 -246,-6 -492,-13 -737,-23 76,-1136 143,-2274 201,-3411 256,10 514,16 772,22z"/>
    <path fill="#ECDBB5" fill-rule="nonzero" d="M91825 86099c-259,-5 -517,-12 -776,-22 20,-482 37,-965 53,-1447 262,-54 527,-107 792,-165 -21,546 -44,1090 -69,1634z"/>
    <path fill="#ECDBB5" fill-rule="nonzero" d="M91187 93610c-55,455 -114,909 -175,1364 -222,-47 -445,-95 -668,-143 51,-417 101,-831 149,-1247 231,10 462,18 694,26z"/>
    <path fill="#ECDBB5" fill-rule="nonzero" d="M87732 85561c-159,1286 -332,2572 -519,3857 -238,-21 -476,-43 -713,-67 222,-1281 426,-2562 616,-3845 206,20 411,38 616,55z"/>
    <path fill="#ECDBB5" fill-rule="nonzero" d="M86071 91960c122,-700 240,-1400 355,-2102 243,25 484,48 727,70 -82,706 -168,1409 -257,2112 -276,-24 -551,-52 -825,-80z"/>
    <path fill="#ECDBB5" fill-rule="nonzero" d="M85991 92399c278,29 558,57 838,82 -159,533 -322,1065 -490,1597 -221,-26 -443,-52 -663,-80 108,-532 212,-1065 315,-1599z"/>
    <path fill="#ECDBB5" fill-rule="nonzero" d="M81951 81390c-134,764 -273,1529 -416,2292 -213,-41 -427,-82 -639,-124 168,-759 329,-1517 487,-2277 189,38 379,74 568,109z"/>
    <path fill="#ECDBB5" fill-rule="nonzero" d="M80331 86144c159,-693 314,-1388 467,-2082 216,43 432,86 650,125 -123,700 -249,1400 -379,2100 -246,-47 -492,-95 -738,-143z"/>
    <path fill="#ECDBB5" fill-rule="nonzero" d="M80227 86575c249,51 501,100 752,147 -180,524 -364,1045 -551,1565 -200,-42 -400,-85 -601,-130 135,-526 269,-1054 400,-1582z"/>
    <path fill="#ECDBB5" fill-rule="nonzero" d="M76297 78559c-203,749 -409,1496 -620,2244 -198,-59 -397,-119 -595,-180 234,-740 463,-1483 688,-2225 176,54 351,109 527,161z"/>
    <path fill="#ECDBB5" fill-rule="nonzero" d="M74283 83145c220,-677 437,-1354 650,-2032 203,62 406,124 610,184 -187,685 -378,1371 -572,2054 -230,-68 -458,-135 -688,-206z"/>
    <path fill="#ECDBB5" fill-rule="nonzero" d="M74137 83565c234,72 469,142 703,212 -225,504 -452,1006 -684,1508 -184,-60 -369,-122 -554,-183 181,-512 360,-1025 535,-1537z"/>
    <path fill="#ECDBB5" fill-rule="nonzero" d="M93214 92328c61,-1111 111,-2220 150,-3327 280,0 561,-3 841,-6 -50,1110 -111,2220 -183,3330 -269,3 -538,4 -808,3z"/>
    <path fill="#ECDBB5" fill-rule="nonzero" d="M94282 85872c-13,892 -33,1784 -58,2677 -284,4 -568,5 -850,5 19,-892 34,-1784 41,-2674 288,0 579,-2 867,-8z"/>
    <path fill="#ECDBB5" fill-rule="nonzero" d="M93200 92770c263,2 527,2 790,0 -71,875 -150,1753 -234,2629 -255,-45 -507,-88 -760,-135 70,-842 133,-1685 192,-2528l12 34z"/>
    <path fill="#ECDBB5" fill-rule="nonzero" d="M94286 85424c-290,6 -580,7 -870,8 -2,-551 -7,-1100 -14,-1650 293,-70 585,-142 878,-217 5,619 7,1240 6,1859z"/>
    <path fill="#ECDBB5" fill-rule="nonzero" d="M71762 89850c539,-1309 1060,-2625 1564,-3944 193,61 387,122 580,183 -521,1336 -1063,2667 -1626,3990 -173,-75 -347,-151 -518,-229z"/>
    <path fill="#ECDBB5" fill-rule="nonzero" d="M74469 89135c292,-877 579,-1756 856,-2636 220,61 440,120 660,178 -286,879 -581,1756 -884,2631 -212,-57 -422,-115 -632,-173z"/>
    <path fill="#ECDBB5" fill-rule="nonzero" d="M77095 82985c-315,1092 -638,2181 -973,3267 -222,-57 -443,-117 -665,-178 326,-1089 641,-2180 948,-3275 229,64 459,126 690,186z"/>
    <path fill="#ECDBB5" fill-rule="nonzero" d="M77214 82557c-232,-61 -463,-123 -693,-186 124,-466 247,-932 368,-1398 250,4 501,7 751,8 -140,526 -281,1051 -426,1576z"/>
    <path fill="#ECDBB5" fill-rule="nonzero" d="M74951 89726c-153,431 -308,860 -465,1290 -191,-94 -383,-187 -572,-282 138,-392 276,-786 413,-1180 207,58 416,116 624,172z"/>
    <path fill="#ECDBB5" fill-rule="nonzero" d="M73643 81177c-434,1219 -883,2432 -1345,3643 -211,-70 -421,-142 -632,-215 493,-1198 970,-2401 1432,-3609 181,61 363,122 545,181z"/>
    <path fill="#ECDBB5" fill-rule="nonzero" d="M70679 87052c272,-655 539,-1312 803,-1969 214,74 430,148 645,220 -236,667 -474,1333 -716,1998 -245,-81 -488,-164 -732,-249z"/>
    <path fill="#ECDBB5" fill-rule="nonzero" d="M70507 87461c247,86 494,170 743,253 -268,486 -539,969 -813,1451 -196,-72 -391,-145 -587,-218 223,-494 442,-989 657,-1486z"/>
    <path fill="#ECDBB5" fill-rule="nonzero" d="M77077 88908c302,-1065 594,-2131 878,-3202 253,61 506,120 760,177 -292,1068 -594,2134 -907,3199 -244,-58 -488,-115 -731,-174z"/>
    <path fill="#ECDBB5" fill-rule="nonzero" d="M79472 82862c-208,864 -423,1728 -644,2590 -255,-58 -509,-117 -763,-177 216,-863 426,-1728 630,-2593 259,61 517,121 777,180z"/>
    <path fill="#ECDBB5" fill-rule="nonzero" d="M76965 89339c238,58 477,114 716,169 -260,836 -529,1671 -804,2505 -218,-97 -437,-195 -655,-293 253,-805 500,-1610 741,-2416l2 35z"/>
    <path fill="#ECDBB5" fill-rule="nonzero" d="M79576 82427c-261,-59 -522,-120 -783,-182 120,-535 237,-1072 351,-1607 279,-8 556,-15 833,-26 -131,605 -265,1210 -401,1815z"/>
    <path fill="#ECDBB5" fill-rule="nonzero" d="M81242 91115c203,-904 400,-1806 591,-2711 230,40 461,80 693,116 -201,904 -409,1805 -625,2706 -219,-36 -439,-73 -659,-111z"/>
    <path fill="#ECDBB5" fill-rule="nonzero" d="M82895 86570c-89,505 -181,1010 -274,1514 -233,-37 -466,-75 -698,-116 76,-506 151,-1013 224,-1519 250,42 498,83 748,121z"/>
    <path fill="#ECDBB5" fill-rule="nonzero" d="M83049 85779c-249,-40 -499,-82 -748,-125 191,-969 373,-1937 548,-2907 256,-20 512,-42 768,-65 -180,1033 -369,2066 -568,3097z"/>
    <path fill="#ECDBB5" fill-rule="nonzero" d="M81795 91658c-112,443 -226,888 -342,1331 -204,-75 -408,-150 -611,-228 101,-405 200,-808 295,-1214 220,38 438,74 658,111z"/>
    <path fill="#ECDBB5" fill-rule="nonzero" d="M83644 91047c194,-1035 379,-2071 556,-3108 254,36 508,69 761,100 -184,1036 -379,2070 -584,3104 -245,-31 -489,-62 -733,-96z"/>
    <path fill="#ECDBB5" fill-rule="nonzero" d="M85424 85117c-126,834 -255,1669 -391,2503 -256,-31 -511,-64 -765,-98 128,-836 252,-1672 368,-2508 263,35 524,69 788,103z"/>
    <path fill="#ECDBB5" fill-rule="nonzero" d="M83576 91461c239,34 477,67 717,98 -175,814 -357,1628 -544,2441 -225,-73 -448,-146 -670,-221 169,-783 333,-1566 491,-2350l6 32z"/>
    <path fill="#ECDBB5" fill-rule="nonzero" d="M85484 84696c-263,-32 -526,-66 -790,-102 68,-518 133,-1036 197,-1555 276,-27 550,-60 825,-93 -74,584 -152,1167 -232,1750z"/>
    <polygon fill="url(#id2)" points="28146,58831 28146,58828 "/>
    <path fill="#D9DAD8" fill-rule="nonzero" d="M21097 39668c-7584,-3120 -13635,-4423 -18018,-4951l0 -727c4450,529 10600,1845 18315,5012 -102,220 -201,442 -297,666z"/>
    <path fill="#D9DAD8" d="M28146 58828l0 0c-8,-8 -41,-34 -94,-73 1003,-4791 1592,-9821 1707,-15027 -3077,-1614 -5966,-2952 -8662,-4060 96,-224 195,-446 297,-666 2646,1086 5476,2390 8485,3955 -73,5505 -671,10823 -1733,15871l0 0z"/>
    <path fill="#FDF6D1" fill-rule="nonzero" d="M3079 49961c14034,1772 24635,9385 24813,9566 56,-255 106,-514 160,-772 -1089,-804 -11468,-7838 -24973,-9491l0 697z"/>
    <polygon fill="#FDF6D1" fill-rule="nonzero" points="27892,59527 27892,59530 "/>
    <path fill="#FDF6D1" fill-rule="nonzero" d="M22655 46689c-187,-61 -373,-121 -559,-181 -6,-723 -21,-1449 -47,-2178 208,63 415,127 623,191 4,727 -2,1449 -17,2168zm-254 4404c-163,-57 -326,-113 -489,-169 93,-1286 156,-2583 185,-3893 183,58 366,118 549,179 -50,1307 -132,2602 -245,3883zm-1431 -2638c-204,-64 -407,-126 -610,-188 62,-532 119,-1067 170,-1604 158,53 318,105 478,158 -7,547 -20,1092 -38,1634zm-109 2572c-181,-60 -361,-119 -542,-177 22,-709 33,-1422 34,-2138 200,62 399,124 599,188 -20,712 -51,1422 -91,2127zm-220 2798c-159,-56 -320,-111 -480,-167 59,-760 106,-1527 142,-2296 177,57 354,116 531,174 -53,768 -117,1532 -193,2289zm-1328 -4502c-198,-60 -398,-119 -597,-177 40,-1119 54,-2249 42,-3386 186,50 373,101 560,153 24,1145 22,2282 -5,3410zm-53 1874c-210,-3 -419,-5 -628,-7 28,-533 52,-1067 70,-1604 201,59 402,119 602,179 -10,480 -25,957 -44,1432zm-1793 -1727c-222,-62 -444,-123 -667,-182 25,-869 32,-1744 24,-2622 214,54 427,108 641,164 16,885 17,1765 2,2640zm-45 2053c-234,2 -466,5 -699,8 29,-600 51,-1203 65,-1808 225,60 450,122 675,186 -9,540 -22,1078 -41,1614zm-86 -8455c66,1113 105,2220 120,3319 -210,-55 -422,-109 -633,-161 -4,-1091 -31,-2191 -83,-3298 199,46 398,93 596,140zm-1881 7765c-162,-42 -325,-85 -487,-125 19,-748 25,-1501 20,-2257 179,43 358,86 537,130 -11,755 -35,1505 -70,2252zm46 -4844c16,699 23,1396 20,2090 -181,-45 -364,-88 -545,-130 -18,-696 -46,-1395 -84,-2097 203,44 405,90 609,137zm-546 -2161c163,38 326,79 490,118 21,537 37,1073 47,1606 -206,-46 -412,-93 -617,-138 31,-527 59,-1055 80,-1586zm-903 5519c-206,13 -414,26 -620,41 20,-1005 19,-2016 -3,-3036 205,43 410,86 614,131 22,962 25,1916 9,2864zm-731 -5283c187,36 373,72 560,111 50,506 97,1013 136,1518 -203,-42 -406,-84 -608,-124 -24,-500 -54,-1001 -88,-1505zm-1636 4984c-1,-559 -9,-1122 -23,-1686 215,40 430,81 645,123 19,504 32,1006 40,1506 -221,18 -441,37 -662,57zm-130 -4536c202,34 405,70 608,106 58,824 101,1644 130,2459 -214,-42 -427,-82 -641,-122 -18,-809 -50,-1624 -97,-2443zm-4955 2733c-27,-508 -58,-1018 -96,-1532 201,23 402,45 603,69 39,456 73,910 102,1363 -204,32 -407,66 -609,100zm-1823 651c-31,-572 -70,-1147 -116,-1723 224,18 447,38 672,59 47,513 88,1026 123,1535 -227,42 -453,85 -679,129zm24921 -2986c-2204,-810 -4580,-1423 -7037,-1817 3,325 9,651 8,975 -209,-65 -419,-130 -629,-192 23,-288 41,-577 62,-866 -366,-53 -733,-102 -1101,-145 22,1038 24,2070 6,3095 -165,-51 -331,-102 -497,-152 29,-992 37,-1992 27,-2998 -439,-46 -878,-87 -1320,-120 47,930 79,1855 93,2776 -185,-51 -368,-102 -553,-151 -3,-881 -23,-1766 -56,-2656 -463,-29 -927,-49 -1392,-61l4 58 -13 -37c-34,-8 -69,-16 -103,-24 -713,-17 -1426,-15 -2140,6 126,46 251,91 376,138 -1,253 -2,506 -5,758 -190,-75 -379,-150 -569,-223 -11,-221 -24,-443 -38,-664 -348,12 -695,29 -1042,51 28,359 54,718 76,1076 -185,-37 -370,-74 -555,-108 -15,-310 -35,-621 -53,-932 -407,31 -812,69 -1216,113 39,467 75,933 105,1397 -202,-36 -404,-72 -606,-105 -21,-407 -48,-815 -77,-1224 -314,40 -627,79 -939,127 -134,20 -264,42 -397,63 75,1158 123,2309 142,3450 -165,-27 -329,-54 -493,-78 -35,-1088 -99,-2184 -186,-3286 -923,157 -1809,344 -2663,556 58,552 111,1103 156,1652 -200,-23 -400,-46 -598,-67 -34,-480 -75,-961 -119,-1444 -418,111 -826,228 -1226,350 60,539 117,1077 165,1613 -223,-20 -445,-39 -667,-57 -35,-453 -77,-907 -122,-1362 -489,160 -965,327 -1427,501l0 4368c13505,1653 23884,8687 24973,9491 1003,-4791 1592,-9821 1707,-15027 -18,395 -38,790 -61,1182z"/>
    <path fill="#FDFBDB" fill-rule="nonzero" d="M4448 39351l-16 -32c-192,-11 -384,-21 -576,-30 -127,-829 -268,-1660 -426,-2495 194,50 386,99 579,150 160,805 307,1607 439,2407zm523 3536c-211,-16 -421,-31 -632,-45 -115,-1039 -254,-2084 -419,-3134 197,11 395,21 591,32 179,1053 332,2102 460,3147zm1053 -5476c71,401 137,802 201,1202 -170,-13 -340,-26 -510,-38 -66,-437 -135,-875 -209,-1314 172,49 345,99 518,150zm652 4282c-184,-17 -369,-33 -553,-49 -98,-878 -213,-1758 -345,-2644 172,12 345,27 518,40 145,887 272,1772 380,2653zm1217 -3904c201,1373 363,2737 484,4093 -166,-22 -332,-42 -497,-63 -108,-1369 -255,-2748 -444,-4136 152,35 305,70 457,106zm1721 429c69,529 133,1057 190,1583 -212,-27 -424,-54 -635,-79 -14,-523 -32,-1049 -56,-1576 166,24 334,47 501,72zm443 4081c-189,-27 -376,-53 -563,-78 -79,-687 -169,-1375 -269,-2065 209,25 418,51 627,79 78,690 147,1379 205,2064zm1494 -3925c107,791 200,1579 281,2363l-13 -32c-185,-29 -370,-58 -554,-86 -73,-812 -160,-1627 -261,-2445 182,66 365,133 547,200zm1916 941c47,415 90,829 129,1242 -171,-30 -342,-60 -514,-90 -37,-451 -79,-902 -125,-1355 170,67 340,135 510,203zm1726 256c81,907 144,1810 191,2708 -192,-73 -384,-146 -576,-218 -67,-899 -150,-1802 -249,-2708 212,71 424,144 634,218zm3925 1372c29,424 53,848 75,1271 -172,-43 -342,-87 -513,-130 -18,-460 -41,-922 -67,-1384 168,80 337,162 505,243zm-14612 3452c-37,-377 -77,-755 -120,-1135 213,15 426,30 639,47 38,299 71,596 105,894 400,-122 808,-239 1226,-350 -54,-592 -114,-1186 -184,-1783 185,17 372,33 557,51 69,532 131,1062 188,1591 854,-212 1740,-399 2663,-556 -11,-146 -18,-290 -30,-435 184,24 368,50 552,76 6,91 9,182 15,273 133,-21 263,-43 397,-63 312,-48 625,-87 939,-127 -43,-613 -91,-1228 -149,-1845 189,28 379,57 568,87 60,565 112,1128 159,1690 404,-44 809,-82 1216,-113 -36,-596 -77,-1193 -128,-1792 172,31 345,61 518,92 54,557 100,1111 142,1664 347,-22 694,-39 1042,-51 -2,-33 -3,-65 -5,-98 80,29 161,60 241,89 714,-21 1427,-23 2140,-6 -159,-37 -318,-74 -477,-110 -37,-873 -89,-1750 -154,-2632 189,85 377,171 566,257 73,833 131,1662 177,2488 465,12 929,32 1392,61 -2,-42 -3,-85 -4,-127 172,44 346,88 518,133l2 25c442,33 881,74 1320,120 -4,-444 -11,-889 -22,-1336 151,62 301,124 452,188 15,402 25,803 34,1203 368,43 735,92 1101,145 17,-256 38,-511 54,-767 166,53 332,108 498,163 5,230 4,458 7,687 2457,394 4833,1007 7037,1817 23,-392 43,-787 61,-1182 -11735,-6156 -20739,-8295 -26680,-9011l0 10179c462,-174 938,-341 1427,-501z"/>
    <path fill="#ECDBB5" fill-rule="nonzero" d="M8377 41882c-121,-1356 -283,-2720 -484,-4093 -152,-36 -305,-71 -457,-106 189,1388 336,2767 444,4136 165,21 331,41 497,63z"/>
    <path fill="#ECDBB5" fill-rule="nonzero" d="M15384 42279c-47,-898 -110,-1801 -191,-2708 -210,-74 -422,-147 -634,-218 99,906 182,1809 249,2708 192,72 384,145 576,218z"/>
    <path fill="#ECDBB5" fill-rule="nonzero" d="M14859 43274c190,73 379,148 569,223 3,-252 4,-505 5,-758 -125,-47 -250,-92 -376,-138 -78,2 -157,6 -236,9 14,221 27,443 38,664z"/>
    <path fill="#ECDBB5" fill-rule="nonzero" d="M14821 42610c79,-3 158,-7 236,-9 -80,-29 -161,-60 -241,-89 2,33 3,65 5,98z"/>
    <path fill="#ECDBB5" fill-rule="nonzero" d="M6123 41644c184,16 369,32 553,49 -108,-881 -235,-1766 -380,-2653 -173,-13 -346,-28 -518,-40 132,886 247,1766 345,2644z"/>
    <path fill="#ECDBB5" fill-rule="nonzero" d="M6475 45295c198,21 398,44 598,67 -45,-549 -98,-1100 -156,-1652 -188,46 -377,92 -561,141 44,483 85,964 119,1444z"/>
    <path fill="#ECDBB5" fill-rule="nonzero" d="M6172 42068c70,597 130,1191 184,1783 184,-49 373,-95 561,-141 -57,-529 -119,-1059 -188,-1591 -185,-18 -372,-34 -557,-51z"/>
    <path fill="#ECDBB5" fill-rule="nonzero" d="M6504 45713c38,514 69,1024 96,1532 202,-34 405,-68 609,-100 -29,-453 -63,-907 -102,-1363 -201,-24 -402,-46 -603,-69z"/>
    <path fill="#ECDBB5" fill-rule="nonzero" d="M6225 38613c-64,-400 -130,-801 -201,-1202 -173,-51 -346,-101 -518,-150 74,439 143,877 209,1314 170,12 340,25 510,38z"/>
    <path fill="#ECDBB5" fill-rule="nonzero" d="M9766 46440c164,24 328,51 493,78 -19,-1141 -67,-2292 -142,-3450 -179,28 -360,55 -537,86 87,1102 151,2198 186,3286z"/>
    <path fill="#ECDBB5" fill-rule="nonzero" d="M9550 42719c12,145 19,289 30,435 177,-31 358,-58 537,-86 -6,-91 -9,-182 -15,-273 -184,-26 -368,-52 -552,-76z"/>
    <path fill="#ECDBB5" fill-rule="nonzero" d="M9494 42221c187,25 374,51 563,78 -58,-685 -127,-1374 -205,-2064 -209,-28 -418,-54 -627,-79 100,690 190,1378 269,2065z"/>
    <path fill="#ECDBB5" fill-rule="nonzero" d="M14968 50708c162,40 325,83 487,125 35,-747 59,-1497 70,-2252 -179,-44 -358,-87 -537,-130 5,756 -1,1509 -20,2257z"/>
    <path fill="#ECDBB5" fill-rule="nonzero" d="M15521 48079c3,-694 -4,-1391 -20,-2090 -204,-47 -406,-93 -609,-137 38,702 66,1401 84,2097 181,42 364,85 545,130z"/>
    <path fill="#ECDBB5" fill-rule="nonzero" d="M15445 43946c-164,-39 -327,-80 -490,-118 -21,531 -49,1059 -80,1586 205,45 411,92 617,138 -10,-533 -26,-1069 -47,-1606z"/>
    <path fill="#ECDBB5" fill-rule="nonzero" d="M20161 53658c160,56 321,111 480,167 76,-757 140,-1521 193,-2289 -177,-58 -354,-117 -531,-174 -36,769 -83,1536 -142,2296z"/>
    <path fill="#ECDBB5" fill-rule="nonzero" d="M20319 50850c181,58 361,117 542,177 40,-705 71,-1415 91,-2127 -200,-64 -399,-126 -599,-188 -1,716 -12,1429 -34,2138z"/>
    <path fill="#ECDBB5" fill-rule="nonzero" d="M20360 48267c203,62 406,124 610,188 18,-542 31,-1087 38,-1634 -160,-53 -320,-105 -478,-158 -51,537 -108,1072 -170,1604z"/>
    <path fill="#ECDBB5" fill-rule="nonzero" d="M4339 42842c211,14 421,29 632,45 -128,-1045 -281,-2094 -460,-3147 -196,-11 -394,-21 -591,-32 165,1050 304,2095 419,3134z"/>
    <path fill="#ECDBB5" fill-rule="nonzero" d="M4628 45757c222,18 444,37 667,57 -48,-536 -105,-1074 -165,-1613 -210,64 -419,128 -624,194 45,455 87,909 122,1362z"/>
    <path fill="#ECDBB5" fill-rule="nonzero" d="M4386 43260c43,380 83,758 120,1135 205,-66 414,-130 624,-194 -34,-298 -67,-595 -105,-894 -213,-17 -426,-32 -639,-47z"/>
    <path fill="#ECDBB5" fill-rule="nonzero" d="M3856 39289c192,9 384,19 576,30l16 32c-132,-800 -279,-1602 -439,-2407 -193,-51 -385,-100 -579,-150 158,835 299,1666 426,2495z"/>
    <path fill="#ECDBB5" fill-rule="nonzero" d="M4661 46173c46,576 85,1151 116,1723 226,-44 452,-87 679,-129 -35,-509 -76,-1022 -123,-1535 -225,-21 -448,-41 -672,-59z"/>
    <path fill="#ECDBB5" fill-rule="nonzero" d="M20510 45808c166,50 332,101 497,152 18,-1025 16,-2057 -6,-3095 -154,-18 -309,-38 -464,-55 10,1006 2,2006 -27,2998z"/>
    <path fill="#ECDBB5" fill-rule="nonzero" d="M20515 41474c11,447 18,892 22,1336 155,17 310,37 464,55 -9,-400 -19,-801 -34,-1203 -151,-64 -301,-126 -452,-188z"/>
    <path fill="#ECDBB5" fill-rule="nonzero" d="M18757 45315c185,49 368,100 553,151 -14,-921 -46,-1846 -93,-2776 -172,-13 -344,-21 -516,-31 33,890 53,1775 56,2656z"/>
    <path fill="#ECDBB5" fill-rule="nonzero" d="M18697 42532c1,42 2,85 4,127 172,10 344,18 516,31l-2 -25c-172,-45 -346,-89 -518,-133z"/>
    <path fill="#ECDBB5" fill-rule="nonzero" d="M18758 45760c12,1137 -2,2267 -42,3386 199,58 399,117 597,177 27,-1128 29,-2265 5,-3410 -187,-52 -374,-103 -560,-153z"/>
    <path fill="#ECDBB5" fill-rule="nonzero" d="M18632 51190c209,2 418,4 628,7 19,-475 34,-952 44,-1432 -200,-60 -401,-120 -602,-179 -18,537 -42,1071 -70,1604z"/>
    <path fill="#ECDBB5" fill-rule="nonzero" d="M19193 42214c-22,-423 -46,-847 -75,-1271 -168,-81 -337,-163 -505,-243 26,462 49,924 67,1384 171,43 341,87 513,130z"/>
    <path fill="#ECDBB5" fill-rule="nonzero" d="M21912 50924c163,56 326,112 489,169 113,-1281 195,-2576 245,-3883 -183,-61 -366,-121 -549,-179 -29,1310 -92,2607 -185,3893z"/>
    <path fill="#ECDBB5" fill-rule="nonzero" d="M22096 46508c186,60 372,120 559,181 15,-719 21,-1441 17,-2168 -208,-64 -415,-128 -623,-191 26,729 41,1455 47,2178z"/>
    <path fill="#ECDBB5" fill-rule="nonzero" d="M22040 43876c210,62 420,127 629,192 1,-324 -5,-650 -8,-975 -186,-29 -373,-56 -559,-83 -21,289 -39,578 -62,866z"/>
    <path fill="#ECDBB5" fill-rule="nonzero" d="M22156 42243c-16,256 -37,511 -54,767 186,27 373,54 559,83 -3,-229 -2,-457 -7,-687 -166,-55 -332,-110 -498,-163z"/>
    <path fill="#ECDBB5" fill-rule="nonzero" d="M17456 46387c-15,-1099 -54,-2206 -120,-3319 -198,-47 -397,-94 -596,-140 52,1107 79,2207 83,3298 211,52 423,106 633,161z"/>
    <path fill="#ECDBB5" fill-rule="nonzero" d="M16824 46666c8,878 1,1753 -24,2622 223,59 445,120 667,182 15,-875 14,-1755 -2,-2640 -214,-56 -427,-110 -641,-164z"/>
    <path fill="#ECDBB5" fill-rule="nonzero" d="M17300 42619l13 37 -4 -58c-37,-1 -75,-2 -112,-3 34,8 69,16 103,24z"/>
    <path fill="#ECDBB5" fill-rule="nonzero" d="M16566 39853c65,882 117,1759 154,2632 159,36 318,73 477,110 37,1 75,2 112,3 -46,-826 -104,-1655 -177,-2488 -189,-86 -377,-172 -566,-257z"/>
    <path fill="#ECDBB5" fill-rule="nonzero" d="M16723 51531c233,-3 465,-6 699,-8 19,-536 32,-1074 41,-1614 -225,-64 -450,-126 -675,-186 -14,605 -36,1208 -65,1808z"/>
    <path fill="#ECDBB5" fill-rule="nonzero" d="M13300 43629c185,34 370,71 555,108 -22,-358 -48,-717 -76,-1076 -178,11 -355,22 -532,36 18,311 38,622 53,932z"/>
    <path fill="#ECDBB5" fill-rule="nonzero" d="M13119 40905c51,599 92,1196 128,1792 177,-14 354,-25 532,-36 -42,-553 -88,-1107 -142,-1664 -173,-31 -346,-61 -518,-92z"/>
    <path fill="#ECDBB5" fill-rule="nonzero" d="M13881 44175c-187,-39 -373,-75 -560,-111 34,504 64,1005 88,1505 202,40 405,82 608,124 -39,-505 -86,-1012 -136,-1518z"/>
    <path fill="#ECDBB5" fill-rule="nonzero" d="M13429 46352c22,1020 23,2031 3,3036 206,-15 414,-28 620,-41 16,-948 13,-1902 -9,-2864 -204,-45 -409,-88 -614,-131z"/>
    <path fill="#ECDBB5" fill-rule="nonzero" d="M13596 40557c-39,-413 -82,-827 -129,-1242 -170,-68 -340,-136 -510,-203 46,453 88,904 125,1355 172,30 343,60 514,90z"/>
    <path fill="#ECDBB5" fill-rule="nonzero" d="M11530 44102c202,33 404,69 606,105 -30,-464 -66,-930 -105,-1397 -193,21 -386,44 -578,68 29,409 56,817 77,1224z"/>
    <path fill="#ECDBB5" fill-rule="nonzero" d="M11304 41033c58,617 106,1232 149,1845 192,-24 385,-47 578,-68 -47,-562 -99,-1125 -159,-1690 -189,-30 -379,-59 -568,-87z"/>
    <path fill="#ECDBB5" fill-rule="nonzero" d="M12163 44618c-203,-36 -406,-72 -608,-106 47,819 79,1634 97,2443 214,40 427,80 641,122 -29,-815 -72,-1635 -130,-2459z"/>
    <path fill="#ECDBB5" fill-rule="nonzero" d="M11819 40705l13 32c-81,-784 -174,-1572 -281,-2363 -182,-67 -365,-134 -547,-200 101,818 188,1633 261,2445 184,28 369,57 554,86z"/>
    <path fill="#ECDBB5" fill-rule="nonzero" d="M11662 47362c14,564 22,1127 23,1686 221,-20 441,-39 662,-57 -8,-500 -21,-1002 -40,-1506 -215,-42 -430,-83 -645,-123z"/>
    <polygon fill="#A63E33" fill-rule="nonzero" points="103783,50007 103781,49967 "/>
    <path fill="#B3463C" fill-rule="nonzero" d="M108404 51900c0,0 -1,-1 -1,-1 -5,-247 -11,-496 -18,-747 1,0 1,0 1,1 8,250 14,499 18,747z"/>
    <polygon fill="#FDF6D1" fill-rule="nonzero" points="103716,50678 103718,50717 103718,50718 "/>
    <polygon fill="#FDFBDB" fill-rule="nonzero" points="103718,50717 103716,50678 "/>
   </g>
  </g>
 </g>
</svg>
